<?xml version="1.0" encoding="utf-8"?>
<!-- Generator: Adobe Illustrator 22.1.0, SVG Export Plug-In . SVG Version: 6.00 Build 0)  -->
<svg version="1.1" id="Layer_1" xmlns="http://www.w3.org/2000/svg" xmlns:xlink="http://www.w3.org/1999/xlink" x="0px" y="0px"
	 viewBox="0 0 200 200" style="enable-background:new 0 0 200 200;" xml:space="preserve">
<style type="text/css">
	.st0{fill:#FFFFFF;}
	.st1{fill:#010101;}
	.st2{fill:#D81921;}
</style>
<g>
	<path class="st0" d="M98.6,11.2c0.4,0.1,0.9,0.1,1.2,0.3c-0.1,0.3-0.4,0.4-0.7,0.4c-0.5,0-1.1,0.1-0.9-0.5
		C98.4,11.3,98.6,11.3,98.6,11.2z"/>
	<path class="st0" d="M98.2,13.6c0.3,1.5,2.6,1.4,2.8,0.1c0.2-0.9-0.5-0.9-0.7-1.8c2.9,0.5,3.7,3,6.5,3.3c7.1,0.7,13.4,1.5,19.4,3.3
		c15.3,4.4,27.8,12.6,37.3,22.1c8.6,8.6,15.8,19.4,19.9,32.1c1.2,3.8,1.9,7.5,4.6,10c0,2-4.5,0.7-2.7,3.1c0.9,1.5,3.3,4.5,2.2,7.2
		c-0.3,0.8-1.5,1.3-2.7,1.1c0.4-2.3,1-4,0-5.8c-0.4-0.8-1.6-1.2-1.2-2c0.9-2.4-3.8-1.9-2.2,0c0.9,2.6,3.4,6.6,0.4,8.5
		c-1.1-0.1-2.4,0.2-3.3-0.1c0.7-1.4,1.7-2.7,1.6-4.5c-0.1-1.7-1.5-2.6-1.8-4.1c-0.2-1-1.9-1-2.3-0.1c0,0.2,0,0.5,0,0.7
		c0.8,1.8,2,4.7,0.8,6.5c-1.1,1.6-3.5,1.7-5.7,0.9c0.8-1.8,2.8-3.2,2.6-5.6c-0.2-1.7-1.6-2.5-2.3-3.9c-0.3-0.6-1.9-0.3-1.8,0.4
		c0,1.6,1.5,3.7,0.8,5.6c-0.9,2.8-4.9,3.2-7.3,1.4c0.8-1.7,2.9-3.3,2.6-5.7c-0.1-0.9-1-1.4-0.8-2.6c0-0.2,0.1-0.5-0.1-0.5
		c-0.1-0.2-0.2-0.3-0.4-0.4c-0.6-1-2.9-0.2-2.2,1c-0.1,1,0.3,1.7,0.1,2.7c-0.5,4-5.6,4.2-8.7,2.3c1-2.2,4.9-4,3-7.3
		c0.1-0.3,0.2-0.6,0.4-0.8c0.6-1.6-2.3-2.6-2.7-0.9c-1,3-2.2,7-6.2,6.2c-1.5-0.3-3.1-1.7-4.2-2.4c1.7-1.8,5-3.1,4.1-6.6
		c0.2,0,0.2-0.3,0.3-0.4c2.1-1.6-2.1-4-2.2-1.2c-0.2,1.1-1.1,1.3-1.9,1.9c-1.3,0.9-2.6,2.4-3.3,2.7c-3.2,1.2-5.1-1.7-7.2-3
		c1.5-1.9,4.4-2.6,6.2-4.2c0.3-0.8,0.5-1.7,1.1-2.2c1.3-1.2-1.4-3.1-2.3-1.6c-0.3,0.4-0.5,0.7-0.8,1.1c-3.3-0.4-5.8,3.3-8,3.3
		c-0.7,0-2.1-0.8-2.7-1.2c-0.5-0.3-3.1-2.4-3-3c0.1-1.2,3.8-1.4,5-1.9c1.8-0.7,2.2-1.7,3.3-2.7c1.8-1.9-2.3-3.8-2.7-1.4
		c-0.3,1.2-1.3,0.4-2.3,0.4c-0.8,0-2,0.3-2.8,0.5c-1.2,0.3-2.2,1.4-3.3,1.5c-2.8,0.4-4.3-2.7-6.1-4.1c1.6-2.5,6.3-1.9,8.7-3.7
		c0.4-0.3,0.7-0.6,0.9-1.1c-0.1-1.5-2.8-2.6-3.1-0.5c-0.1,0.3-0.3,0.4-0.4,0.7c-1.5-0.4-2.9-1-4.9-0.7c-1.4,0.2-2.4,1.2-3.7,1.4
		c-1.7,0.2-2.8-1-3.8-1.9c-0.6-0.6-2.3-1.8-2.3-2.6c0-2.5,5.6-1.2,7.7-1.4c1,0,1.6-0.4,2.3-0.1c2.6-0.3,0.6-3.9-1.4-2.6
		c-0.9,1.3-1.9-0.3-3.3-0.7c-0.6-0.2-1.5-0.3-2-0.3c-1.9,0-3.5,1.3-5.1,1.2c-2-0.1-3.9-2.9-4.6-4.2c2.3-2.9,8-0.1,10.8-1.6
		c2.1-0.9-1.3-3.5-1.9-1.4c-0.9,1.2-2.1-1.2-3.1-1.6c-2.7-1.1-5.1,1-6.9,0.9c-2.2,0-3-2.7-3.4-4.7c2.8-2,7.2-0.2,10,0.5
		c0.7,0.4,1.5-0.1,1.9-0.5c0.4-1.7-1.6-2.8-2.6-1.8c-1.5,1.1-2.7-1.3-4.6-1.8c-2-0.5-3.4,0.1-5.4,0.5c-1.4-0.6-1.9-2.7-1.9-4.2
		c0.2-0.6,1.4-1,2.3-1.1c1.8-0.1,5.6,0.9,6.2,1.6c1.9,3.2,4.6-2.4,0.8-1.8c-1.5,0.4-2-1.2-3.3-1.8c-2.1-1-4.9-0.8-6.8-0.1
		c-0.6-1-0.8-2.9-0.5-4.2c2.4-1,6.1-0.1,7.5,1.2c0.3,0.6,0.7,1,1.2,1.1c2.5,0.3,2.1-3.6-0.7-2.7c-1.5-0.4-2.6-2.1-4.2-2.3
		c-1.3-0.2-2.2,0.6-3.9,0.3c-0.2-0.7-0.2-2.1,0-2.8c1.6-1.5,4.1-0.2,5.6,0.7c1.5,2.9,4.7-1.4,1.2-1.9c-2.1-0.3-4.3-1.6-6.5-0.5
		c-0.5-0.5-0.2-1.6,0-2.2C94,11.6,97.4,12.2,98.2,13.6z"/>
	<path class="st0" d="M86.9,14c1.3-0.7,4.2-0.2,3.4,1.6c-2.8-0.1-5.3,1.2-6.9,2.7c-0.3,0-0.3-0.2-0.5-0.1c-1-0.8-2.1,0.1-2.2,0.8
		c-0.2,1.6,2.9,2.9,3,0.4c0.2-0.1,0.2-0.4,0.3-0.7c1.7-1.1,5.3-1.5,5.8,0.9c-3.5,0.1-4.9,2.3-6.6,4.1c-3.5,0-0.3,4.6,1.4,2.2
		c0-0.4,0.1-1-0.1-1.2c0.5-1,2.5-2.1,3.8-1.9c0.8,0.2,2.5,1.7,2.6,2.2c0.2,1.6-2.8,2-4.1,3.5c-0.8,0.9-1.1,2.5-1.9,2.7
		c-3.8,0.7,1.6,5.4,1.6,1.2c0.6-3.1,6.7-3.8,6,0.4c-0.3,1.7-3,2.7-3.9,4.7c-0.6,1.2-0.4,2-0.9,3.3c-0.1,0.2-0.5,0-0.5,0.3
		c-4.7,0.5,1.8,5.4,1.4,1.1c0.2-0.9,1.1-1.3,1.8-2c1.1-1.2,1.8-3.1,3.8-3c0.6,1.4,2.2,2.8,2.3,4.2c0.1,2.2-3.6,5.1-3,8.5
		c-0.2,0.1-0.3,0.2-0.5,0.3c-3.8-0.6-0.6,4.9,1.2,2c0-0.3,0-0.5,0-0.8c0-0.2-0.2-0.2-0.1-0.4c1.8-1.6,2.6-4.2,4.7-5.6
		c1.3,1.2,2.1,2.9,3.3,4.2c-0.2,3.5-1.5,6-1.9,9.5c-0.2,0-0.2,0.2-0.4,0.1c-4.1,0.3,1,5.4,1.5,1.5c1.8-1.9,2.3-5.1,4.2-6.9
		c1.2,1.7,3.5,2.5,4.3,4.3c1.3,2.9-1.8,6.6-0.7,10.6c-0.2,0.2-0.5,0.4-0.8,0.5c-2.8,1,1,4.5,2.2,2c0-0.4,0.1-0.8-0.1-0.9
		c0.4-1.8,2-3,2.6-4.9c0.4-1.1,0-2.2,1.1-3c1.4,1.2,4.8,2.5,5.1,5.6c0.1,0.4-0.1,1.2-0.1,1.6c-0.1,2.5,0.6,7.2-1,8
		c-1.4,0.4-0.9,2.3,0.1,2.7c0.9,0,1.6,0,2-0.4c0-0.4,0.3-0.9,0-1.2c1.2-2.4,2.6-4.7,3-7.9c3.1,0.9,5.8,3.8,6,7.9
		c0.1,1.5-0.5,3.4-0.3,5c0.1,1.2,0.7,2.2-0.3,3c-1.7,1.2,0.9,3.3,2.2,1.9c0.1-0.5,0.2-0.8,0-1.2c0-1.9,1.6-2.5,1.9-4.5
		c0.2-1.6-0.4-2.9,0.3-4.6c1.8,0.3,3.1,2.3,5,3c0.3,1.1,1.3,2,1.5,3.7c0.3,2-0.4,4.2-0.1,6c0.1,0.9,0.7,1.6,0,2.2
		c-1.1,2.3,3.2,2.7,2.4,0.4c-0.2-1.2,1.1-2.5,1.4-4.1c0.2-1.6-0.7-2.9,0-4.5c4.5,1.4,7.7,4.5,7.2,10.6c0.6,0.4,1.3-0.1,2,0.3
		c-0.3,0.7-0.9,0.7-1.5,0.4c-0.5,0.7-0.5,1.9-0.8,2.7c-1,2.1,2.9,3.1,2.6,0.5c-0.2-0.8,0.9-1.6,0.3-2.8c2.2-1.3-0.1-4.7,0.3-6.5
		c2.6,0.7,5.1,1.6,6.6,3.4c0.1,0.9,0.4,1.6,0.8,2.3c-0.3,2.2,0,5-0.9,6.5c-0.3,0.4,0,1,0.1,1.4c0.4,0.5,1.6,0.5,2,0
		c0-0.1,0-0.2,0-0.3c0-1.5,0.4-3.3,0.4-5.2c0.4,0.4-0.3,1.5,0.1,2c0.7-0.3,0.4-2.3,0.3-3c1.3-0.3,0.4-2.3,0.5-3.5
		c2.4,0.5,4.5,1.1,5.7,2.7c1.3,1.8,0.9,6-0.1,8c-2.1,1.6,2.7,3.1,1.9,0.4c-0.7-1.1,1.2-2.4,1.5-4.1c0.4-2.3-0.9-3.2-1.1-5.2
		c1.1,0.3,2.2,0,3.3,0.3c2.1,0.6,3.7,3.6,3.4,5.7c-0.2,1.1-1.3,3.4-1.6,4.3c-0.2,1.2,0.7,1.4,1.4,1.8c0.4-0.2,0.8-0.4,1.1-0.8
		c0-0.2,0-0.5,0-0.7c-0.6-0.9,0.3-1.7,0.7-2.7c0.3-0.7,0.5-1.6,0.5-2.4c0.1-2.4-1.4-2.7-1.8-4.6c4.7-0.6,8.1,5.1,4.3,8.3
		c-2.7,1.9,3.5,3.1,1.5,0.3c0-0.2,0-0.4,0-0.5c0.5-0.6,1.2-1.1,1.6-1.8c0.7-3.1-0.9-4.5-1.6-6.5c2.4-0.9,3.5,1.7,4.9,2.7
		c0,0.2-0.1,0.3-0.1,0.4c-2.2,0.6,0.3,3.7,1.5,1.9c0-0.6,0.1-1.3-0.4-1.5c-0.5-1.3-1.4-2.9-1.6-4.1c1-1.1,3.3,0.3,2.8,1.5
		c-0.6,1.2,0.5,2.3-0.1,4.2c-0.6,1.6-2.2,2.8-2.7,4.6c-0.4,1.6-0.3,3.5-0.5,5.3c-1.2,10.3-5.4,20.9-9.3,27.8
		c-1.1,3.2-3.3,5.3-4.6,8.3c-4.1,5.4-8.4,10.4-13.3,15c-4.5,4.3-9.7,7.6-15,11.1c-5.5,2.8-11.7,5.9-18,8c-2.6,0.9-5.2,1.5-7,3.4
		c-0.6-0.9-0.7-2.2-2.4-2c-0.5-0.5,0.4-0.7,1-0.5c4.4,0.4-0.3-5.9-1.4-1.6c-0.3,0,0,0.6-0.3,0.7c-1.8,0.5-3.5-0.2-3.8-1.8
		c2.9,0.5,5.1-1.8,6.8-3.4c4.4,0.1-0.7-5.8-1.5-1.5c-0.7,1.2-2.3,1.5-3.8,2c-0.9-0.7-1.7-1.4-2.7-1.9c0-0.8,1.4-0.3,2-0.4
		c2.1-0.8,3-2.9,4.5-4.3c3.7-1-2.2-5.6-1.9-1.2c-1,2.2-4,3.1-6,1.2c-0.8-2.2,0.9-2.3,2-3.4c1.2-1.2,1.9-3.8,2.7-5.1
		c3.3,0.2,1.1-4.6-1.1-2.6c0,0.4,0,0.7,0,1.1c-0.1,0.1-0.2,0.4-0.3,0.5c-0.6,1.1-3.6,4.2-4.9,3.9c-0.7-0.1-2.1-2.6-2-3.1
		c0-0.7,0.5-0.7,0.8-1.2c1.1-1.8,2-4.5,2.3-6.6c0.2,0,0.3-0.2,0.5-0.1c3.9-0.3-0.6-5-1.5-1.6c-1.2,2.1-2.6,3.9-4.5,5.3
		c-0.9-0.3-1.3-1.3-1.9-2.2c-0.5-0.7-1.6-1.6-1.6-2.4c-0.1-1.6,2.2-3.4,2.3-5.4c0-0.8-0.4-1.2-0.3-2.2c0.2-0.1,0.4-0.3,0.7-0.4
		c3.8,0,0.1-4.9-1.2-2c-1.6,1.9-3.2,3.9-4.3,6.2c-1.9-1.3-3.2-3.3-4.7-5c-0.3-1.6,1.5-3.3,1.6-5c0.1-1.3-0.9-3.4,0.7-3.7
		c3.5-1.6-2.6-5-2.3-1.4c-1.1,2.1-2.5,3.9-3.1,6.5c-1-0.3-1.8-1.2-2.6-2c-0.8-0.8-1.9-1.6-2.3-2.3c-1-1.9,0.6-3.3,0.9-5.1
		c0.4-1.8-0.4-4.3,1-4.7c2.7-1.9-3.1-4.7-2.7-1c-0.1,1-1,1.3-1.4,2c-0.8,1.5-0.8,3.2-1.6,4.7c-1.1,0-1.7-1.1-2.4-1.8
		c-1.2-1.1-2.6-1.9-3.3-3.4c-0.3-2.5,0.9-5,0.8-7.2c0-0.9-0.4-1.5,0.1-1.9c3.7-1.6-2.4-5.2-2.2-1.6c-1.2,2.1-2.3,4.2-2.3,7.5
		c-1.3-0.2-2-1.4-3.1-2.3c-0.9-0.7-2.6-1.5-3.1-2.4c-0.5-0.9-0.2-1.9-0.1-3.1c0.2-2.7-0.1-5.4,0.9-6.4c1.8-2.2-2.7-3.8-2.8-1.1
		c-0.2,2.1-1.8,3.2-2,5.1c-0.1,0.9,0.6,1.6-0.1,2.7c-3.5-2-8.5-3.1-7.3-9.4c0-0.4,0.7-0.2,0.7-0.7c-0.3-1.3,0-2.3,0.8-2.8
		c1.4-2.1-3.5-2.7-2.4-0.5c0,1,0.9,0.8,0.7,1.5c-0.4,0.4-0.2-0.7-0.8-0.5c-2.2,0.7-1.7,4.5-1.8,6.9c-1.9-0.4-4-1.9-6-2.7
		c-2-2.5-0.6-6.8,0.8-8.9c2.8-2-3.6-4.3-2.8-1c0.4,1.3-1.1,2.2-1.4,3.9c-0.3,1.9,0.2,3.1,0.1,4.5c-2.3-0.6-4.7-1.3-6.1-2.8
		c-0.4-2.7-0.6-4.2,0-6.9c0.2-0.1,0.4-0.2,0.5-0.4c2.8-1-0.2-4.6-2.2-2.7c-0.1,0.3-0.2,0.7-0.1,1.2c-0.2,1.5-1.5,2-1.8,3.8
		c-0.4,2.3,0.5,3.6,0.7,5c-2.1,0.5-2.4-0.8-3.3-1.4c-0.5-0.4-1.4-0.5-1.9-0.9c-0.6-0.5-0.8-1.2-1.4-1.6c-0.5-2.4,0.1-3.9,1.4-5.1
		c4.1-0.8-1.4-5.9-2.2-1.9c-0.2,1.2-0.9,2.1-1.6,2.8c0,0.9-0.2,1.5-0.1,2.3c0.2,1.7,1.4,3.1,1.4,4.5c-2.1,1.2-3.7-0.8-5-1.6
		c-1.3-1.7-0.8-4.6,0.8-5.6c0.8,0.1,1-0.4,1.4-0.8c0-0.8-0.4-1.3-0.7-1.9c-1.3-0.4-2.6,0.3-2.3,1.5c0,0.1,0,0.3,0,0.4
		c-2.2,1.9-2,5.9-0.5,8.3c-2.9,1.4-6.1-1.5-4.6-4.6c0.2-0.1,0.4-0.2,0.7-0.1c2.9-0.6-1.1-3.9-1.5-1.1c-0.2,0.8-0.9,1.2-1.1,2
		c-0.4,1.7,0.7,3.4,1.1,4.7c-1.4,1.2-4.1-0.6-3-2.3c0.7,0,0.7-0.7,1.1-1.1c-0.3-0.9-1-1.3-1.9-1.2c0.6-2.8,1.5-5.2,2.6-7.5
		c1.1-5.6,2-11.4,3.9-16.1c0-0.3,0-0.6,0-0.9c1.2-2.6,2.3-5.3,3.3-8.1c1.3-1.5,1.7-3.4,2.6-5c0.2-0.3,0.6-0.5,0.8-0.8
		c0.3-0.5,0.3-1.2,0.5-1.6c0.6-1.1,1.9-2.3,2.6-3.5c0.1-0.2,0-0.6,0.1-0.8c0.6-0.9,1.6-1.9,2.4-3c0.8-1,1.5-2.4,2.2-3.1
		c6.4-7,13.4-14.1,21.9-19.2c5.7-3.5,12.2-6.7,19.2-9.1c1.8-0.6,4.4-0.9,6-1.9c1.8-1.2,2.6-3.9,5.1-4.6C83.8,14.5,86.1,15.9,86.9,14
		z"/>
	<path class="st1" d="M98.9,15.5c3.4,0.5,0.3,4.8-1.2,1.9c0-0.1,0-0.2,0-0.3c0.5,0,1,0,1.5,0C99.6,16.6,98.3,16.3,98.9,15.5z"/>
	<path class="st1" d="M84.7,31.2c0.4,0.4-0.1,1.3,0.1,1.5c0.8,0.2,0.6-0.6,1.4-0.5c0,0.1,0,0.3,0.1,0.3
		C86.3,36.6,80.9,31.9,84.7,31.2z"/>
	<path class="st1" d="M111.4,43.3c-0.1,0-0.3,0-0.4,0c-0.1-0.5,0.5-0.6,0.1-0.9c-0.3-0.6-1.2,0.1-1.6-0.3c0,0,0-0.1,0-0.1
		C110.1,39.8,113.5,42.4,111.4,43.3z"/>
	<path class="st1" d="M92.5,50.2c0.3,0.5-0.6,0.9-0.7,1.5c0.2,0,0.2,0.2,0.3,0.3c0.9,0.2,0.7-0.8,1.6-0.5c0,0.3,0,0.5,0,0.8
		C92,55.1,88.8,49.6,92.5,50.2z"/>
	<path class="st1" d="M124.1,57.7c-0.6,0-0.1-1-0.3-1.5c-0.5-0.7-1.4,0.2-1.9-0.1c0.3-2.1,3.1-1,3.1,0.5
		C124.9,57,124.5,57.4,124.1,57.7z"/>
	<path class="st1" d="M107.9,69.3c0.2,0.4,0.2,1.1,0.4,1.5c0.9,0.2,0.9-0.9,1.6-0.4c0.2,0.2,0.1,0.6,0.1,0.9
		C108.9,73.8,105,70.3,107.9,69.3z"/>
	<path class="st1" d="M164.9,83.1c0.2,0,0.1,0.3,0.1,0.5C164.7,83.8,164.4,83,164.9,83.1z"/>
	<path class="st2" d="M190.8,88.8c-1-1.1-1.5-2.6-2.7-3.4c0.4-0.4-0.3-1.1,0.4-1.2C190.2,84.8,191.5,86.3,190.8,88.8z"/>
	<path class="st0" d="M188.1,85.4c1.2,0.8,1.8,2.3,2.7,3.4c-0.1,1.5-0.9,2.3-1.4,3.4c-0.1,0-0.1,0-0.1,0.1c-0.1-1.6-0.3-5.4-2-6.4
		c0-0.1,0.1-0.2,0.1-0.3C187.5,85.5,187.7,85.4,188.1,85.4z"/>
	<path class="st1" d="M46.5,98.7c-1,0.1-0.5-1.3-1.2-1.5c-0.9-0.2-0.9,1.1-1.6,0.5C42.9,94.4,49.2,96.7,46.5,98.7z"/>
	<path class="st0" d="M54.6,102.2c0.3-0.1,0.4,0.1,0.5,0.1c0,0.2-0.2,0.3-0.1,0.5C54.5,102.8,54.4,102.6,54.6,102.2z"/>
	<path class="st0" d="M10.3,104.1c-0.1-0.3-0.2-0.5-0.3-0.8c0.1,0,0.2-0.1,0.1-0.3c0.5,0,0.7,0.7,0.4,1.1
		C10.5,104.1,10.4,104.1,10.3,104.1z"/>
	<path class="st0" d="M23.7,112.5c-0.7,2.1,3,2.8,3.5,1c-0.2-0.5,0-1.5-0.5-1.6c-0.6-1.4-1.2-3.1-0.8-4.7c0.7-3,4.3-3.1,7-1.8
		c-1.4,1.8-3.1,3.2-3.4,6.1c-0.1,0.7,0.5,0.8,0.7,1.2c0,0.2-0.1,0.3-0.1,0.4c-3.3,1.8,2.9,4.9,2.8,1.2c0-2.5,0.1-5.6,2-6.9
		c1.6-1.1,4.8-0.7,6.1,0.7c-1.4,1.8-5.8,4.7-3.4,7.6c0,0.2-0.2,0.3-0.1,0.5c-1.9,2.2,4.2,3.8,3.1,0.4c0-0.3-0.4-0.2-0.3-0.5
		c1-2,1.7-4.5,3.7-5.6c3-0.2,5,0.5,6.6,1.6c-1.9,2.1-4.8,3.1-5.3,6.6c-1.7,1.8,1.7,4.3,2.7,2.2c2.1-2.4,3.3-6.5,7.7-6.1
		c1.9,0.2,3.1,1.8,4.7,2.6c-1.5,2.3-5.7,2.4-5.6,6c-0.1,0.1-0.3,0.3-0.4,0.4c-0.7,0.1-0.8,0.9-1.1,1.4c0.4,1.6,2.8,2.4,3.8,0.8
		c0-0.4,0.1-0.8-0.1-1c0-0.1,0-0.3,0-0.4c2.5-0.8,3.8-3.8,7-3.7c2.1,0.1,3.6,1.4,4.7,2.4c0.7,0.6,1.6,1.1,1.8,1.9
		c-2.3,1.7-5.7,2.2-7.6,4.3c-3.8,0.7,1.6,5.5,2,1.6c0.2,0,0.2-0.2,0.3-0.3c3.1,1,4.9-1.4,7.2-1.5c0.9,0,1.5,0.6,2.4,0.8
		c1.9,0.5,2,0.3,3.3,1.5c1.1,1.1,2.2,2.2,0.4,3.1c-2.1,1.1-6.2,0.4-7.9,1.9c-2.3,1,0.9,4.2,2.3,2.3c1.2-1,2.1,0.3,3.5,0.3
		c2,0,4-1.6,6.1-1.2c0.8,0.1,4,2.3,4.1,3.1c0.1,1.8-6.2,3-7.9,2.4c-3.9-0.2-0.7,5.3,1.2,2.7c0.9-0.7,1.8,0.7,2.7,0.8
		c0.9,0.1,2-0.3,2.8-0.5c1.3-0.4,2.9-1.3,3.9-1.4c0.5,0,1.3,0.4,2,0.7c1.9,0.8,3.3,1.8,3.9,3.5c-2,2-6.9,2.2-9.6,1.2
		c-0.5-0.2-1.1-0.1-1.5,0.1c-0.4,0.4-0.4,1.1-0.4,1.9c0.4,0.7,2.6,1.1,2.8,0c0.3,0,0.2-0.4,0.5-0.3c1.4,0.9,2.9,1.7,5,1.8
		c1.6,0,3.1-1.1,4.2-1.1c0.7,0,2.4,0.7,3.1,1.2c0.6,0.5,1.8,1.8,1.8,2.6c0,0.6-1.1,1.4-1.8,1.6c-2.8,0.9-6.3-0.7-8.3-1.2
		c-1.1,0-1.4,0.7-1.9,1.4c0.3,1.3,2.6,2.4,3.3,0.7c0.2,0,0.2-0.2,0.3-0.3c2.2,1.4,5,2.7,8.1,2c0.7-0.2,1.2-0.6,1.9-0.5
		c1.1,0.1,1.6,1.2,2,2c0.4,0.6,0.7,1.3,0.8,1.9c-2,1.7-6.7,0.7-8.8-0.3c-3.1-2.4-3.7,3.5,0.1,2.2c1.9,2.1,7.1,2.6,9.8,1
		c0.7,1.2,1.4,2.3,1.5,4.1c-1.5,1.4-4.8,0.6-6.4-0.3c-0.6-1.5-2.9-0.9-3,0.4c-0.1,1.2,1.1,2.2,2.6,1.8c0.8-0.3,1.6,0.7,2.6,0.9
		c1.5,0.4,3.6,0,4.6,0c0.6,0.5,0.7,1.8,0.7,2.7c-2,0.5-4.7,0-6.1-0.9c-2.3-2.4-4.3,2.9-0.7,2.4c1.9,0.7,4.8,0.9,6.9,0.7
		c0.2,0.9,0.2,1.9-0.1,2.6c-1.4,0.3-3.3,0.1-4.3-0.4c-0.5-1.5-3-1.4-3.1,0.3c-0.1,0.9,0.7,1.1,0.9,1.9c-3-0.2-1,4.3,0.9,2.4
		c1,0.4,3.7,0.2,5.1,0.7c0.1,0.5-0.2,0.6-0.3,0.8c-0.3,0.1-0.6,0.2-0.7,0.5c-4,1.4-7.9-1.7-11.1-2.3c-2.5-0.4-5-0.1-7.3-0.3
		c-8.9-0.6-18-3.5-24.9-6.2c-6.2-2.4-12-5.8-17.2-9.5c-5-3.6-9.4-7.3-13.5-11.8c-4.7-5.1-8.9-10.7-12.2-17.1
		c-3-5.7-5.6-11.7-7.3-18.6c-0.1-0.5,0-0.9-0.1-1.4c-0.2-0.9-1.5-2.5-1.4-3.7c0.1-0.7,1.7-1.5,0.3-2.2c-2.9-1.2-5-8.3-0.7-9.1
		c0.3,1.7-0.8,3.3-0.3,5.1c0.3,1.1,2.1,1.2,1.9,2.6c-0.9,1.8,3.1,2.1,2.3,0.1c-0.6-2.6-3.8-3.9-2.7-7.3c0.4-1.2,1.8-2,3.4-1.9
		c0,0.7-0.4,2-0.8,2.7c-0.2,2.4,0.6,3.7,1.9,4.6c0,0.3,0,0.5-0.1,0.7c-1.3,2,3.7,3,2.7,0.3c-1.1-2-3-5.9-1-8.3
		c0.2-0.2,0.7-0.2,0.8-0.5c1.2,0.2,2.5-0.3,3.4,0c-0.9,1.7-2.7,3.6-1.9,6.2C22.8,111.2,23.9,111.3,23.7,112.5z"/>
	<path class="st0" d="M53.8,104.7c0.2,0,0.2,0.1,0.4,0.1c0.1,0.6-0.2,0.8-0.1,1.5C53.7,106,53.8,105.3,53.8,104.7z"/>
	<path class="st1" d="M66.8,109.1c-0.6-0.3-0.4-1.4-1.4-1.4c-0.7,0-0.7,0.6-1.4,0.5c0-0.1,0-0.3-0.1-0.3
		C64.1,105.4,68.6,106.9,66.8,109.1z"/>
	<path class="st0" d="M53.8,107.7c0.2-0.2,0.1,0.9,0.3,1.2C53.5,108.9,53.9,108,53.8,107.7z"/>
	<path class="st1" d="M87.1,125.9c-0.2,0-0.2,0.2-0.4,0.1c-0.2-0.3,0.3-0.8,0.1-1.5c0-0.4-0.5-0.3-0.7-0.5c-0.8,0.1-0.8,1-1.8,0.9
		C84,121.2,89.8,124.1,87.1,125.9z"/>
	<path class="st1" d="M54.6,123.8c0.6,0.2,0,1.5,0.4,1.9c0.2,0,0.3,0.1,0.4,0.1c0.9,0,0.9-0.8,1.8-0.8c0.2,0.2,0.1,0.6,0.1,1
		c-1,1.5-3.4,0.8-3.8-0.8C53.9,124.6,53.9,123.9,54.6,123.8z"/>
	<path class="st1" d="M70.9,136.8c0.1,0,0.3,0,0.4,0c0.1,0.7-0.2,1-0.1,1.6c0,0.2,0.2,0.2,0.3,0.4c0.8,0.2,1.2-0.5,1.8-0.1
		c0,0.1,0,0.3,0,0.4C71.8,141,68.6,137.7,70.9,136.8z"/>
	<path class="st1" d="M79,143.7c0.1,0.8-1,1.1-0.7,1.8c-0.1,1,1.8,0.1,1.9,0.9C78.3,149,75.1,143.5,79,143.7z"/>
	<path class="st1" d="M114.9,161.6c-0.8-0.9,0.7-1.3,0.8-2.2c-0.8,0-1.2,1-1.9,0.7c0-0.4,0-0.7,0-1.1
		C116,157,118.2,161.8,114.9,161.6z"/>
	<path class="st1" d="M103.7,176.1c0.1,0.2,0.2,0.2,0,0.4c-0.3,0.1-1.1-0.1-1.8,0c-0.3,0.8,1.3,0.9,1.2,1.9c-0.1,0-0.2,0-0.1,0.1
		C99.4,178.9,101.3,173.7,103.7,176.1z"/>
	<path class="st0" d="M104.6,184.6c-0.2-0.3-0.4-0.5-0.7-0.7c0.1-0.4,0.8-0.3,1-0.7c1.2-0.7,3.1,0.7,4.7,0c0.2,0.5,0.2,0.9,0.1,1.4
		C108.8,185.4,105.4,186,104.6,184.6z"/>
	<path class="st0" d="M116.8,183.1c-0.1,0.4-0.5,0.4-0.4,0.9c-0.9,0.5-3,0.6-3.5-0.3c1.6,0,2.5-0.7,3.9-0.8
		C116.8,183,116.8,183.1,116.8,183.1z"/>
	<path class="st0" d="M117.1,185.4c0.3,0.1,0.5,0.3,0.8,0.4c-1.3,1-4.3,1.8-5.8,0.5C113.7,186,115.5,185.8,117.1,185.4z"/>
	<path class="st2" d="M28.3,94.2c-1.2,1.3-1.9,2.8-1.4,5.1c0.5,0.4,0.7,1.1,1.4,1.6c0.5,0.5,1.4,0.6,1.9,0.9
		c0.9,0.6,1.2,1.8,3.3,1.4c-0.2-1.4-1-2.7-0.7-5c0.3-1.7,1.6-2.3,1.8-3.8c0.6,0.4,0.7-0.6,1.5-0.4c0,0.1,0.2,0.1,0.3,0.1
		c0.7,0.4-0.3,1.6,0.5,1.8c-0.1,0.2-0.4,0.3-0.5,0.4c-0.6,2.7-0.4,4.2,0,6.9c1.4,1.6,3.8,2.2,6.1,2.8c0.1-1.3-0.4-2.5-0.1-4.5
		c0.3-1.7,1.7-2.6,1.4-3.9c0.8,0.5,0.7-0.8,1.6-0.5c0.7,0.2,0.3,1.5,1.2,1.5c-1.4,2.2-2.8,6.5-0.8,8.9c2,0.8,4,2.3,6,2.7
		c0.1-2.4-0.4-6.2,1.8-6.9c0.6-0.2,0.4,0.9,0.8,0.5c0.2-0.7-0.7-0.5-0.7-1.5c0.8-1.2,2-0.7,2.4,0.5c-0.8,0.5-1.1,1.6-0.8,2.8
		c0,0.5-0.7,0.3-0.7,0.7c-1.2,6.2,3.8,7.3,7.3,9.4c0.7-1.1,0-1.8,0.1-2.7c0.2-2,1.9-3.1,2-5.1c0.1,0,0.1,0.2,0.1,0.3
		c0.6,0,0.7-0.6,1.4-0.5c1,0,0.7,1.1,1.4,1.4c-1,0.9-0.7,3.6-0.9,6.4c-0.1,1.2-0.4,2.2,0.1,3.1c0.6,1,2.2,1.7,3.1,2.4
		c1.1,0.9,1.8,2.1,3.1,2.3c0-3.3,1.1-5.4,2.3-7.5c1,0.2,0.7-0.8,1.8-0.5c0.6,0.6-0.1,1.7,0.4,2.2c-0.6,0.4-0.2,1-0.1,1.9
		c0,2.2-1.1,4.7-0.8,7.2c0.7,1.5,2.1,2.3,3.3,3.4c0.7,0.7,1.3,1.7,2.4,1.8c0.9-1.5,0.8-3.3,1.6-4.7c0.4-0.7,1.3-1,1.4-2
		c0.9,0,1-0.8,1.8-0.9c0.2,0.2,0.6,0.2,0.7,0.5c0.2,0.7-0.4,1.2-0.1,1.5c0.2,0,0.2-0.1,0.4-0.1c-1.4,0.5-0.6,3-1,4.7
		c-0.4,1.8-1.9,3.2-0.9,5.1c0.4,0.7,1.6,1.6,2.3,2.3c0.8,0.8,1.6,1.8,2.6,2c0.6-2.6,2-4.4,3.1-6.5c1,0.1,1.5-1.3,2.4-0.4
		c0.1,0.8-0.9,1.3-0.1,1.8c-1.6,0.3-0.6,2.3-0.7,3.7c-0.1,1.8-1.9,3.4-1.6,5c1.6,1.7,2.8,3.7,4.7,5c1.2-2.4,2.7-4.3,4.3-6.2
		c0.1,1,1.1-0.5,1.6,0.1c0.5,0.9-1,1-0.4,1.9c-0.3,0.1-0.4,0.3-0.7,0.4c-0.1,1,0.3,1.4,0.3,2.2c-0.1,2.1-2.4,3.9-2.3,5.4
		c0.1,0.8,1.1,1.7,1.6,2.4c0.6,0.9,1,1.8,1.9,2.2c1.9-1.4,3.3-3.2,4.5-5.3c0.5,0.7,1.2-0.6,1.9-0.1c-0.1,0.6-0.5,0.9-0.8,1.2
		c-0.1,0.4,0.4,0.3,0.4,0.5c-0.3-0.1-0.4,0.1-0.5,0.1c-0.3,2.2-1.2,4.8-2.3,6.6c-0.3,0.5-0.8,0.5-0.8,1.2c0,0.5,1.3,3,2,3.1
		c1.3,0.2,4.3-2.9,4.9-3.9c0.1-0.2,0.2-0.4,0.3-0.5c0.7,0.4,1.1-0.7,1.9-0.7c-0.1,0.8-1.6,1.3-0.8,2.2c-0.8,1.4-1.5,3.9-2.7,5.1
		c-1.1,1.1-2.8,1.2-2,3.4c1.9,1.9,5,1,6-1.2c0.6,0.3,0.9-0.8,1.8-0.7c0.3,0.7-0.5,1.4,0.1,1.9c-1.5,1.4-2.4,3.5-4.5,4.3
		c-0.7,0.2-2-0.4-2,0.4c1,0.5,1.9,1.2,2.7,1.9c1.4-0.5,3-0.8,3.8-2c0.4,0.3,1.2-0.7,1.9-0.1c0.2,0.8-0.8,1-0.4,1.6
		c-1.7,1.6-3.8,3.9-6.8,3.4c0.3,1.5,2,2.3,3.8,1.8c0.2-0.1,0-0.6,0.3-0.7c0.2,0.9,1.4,0.1,1.9,0.1c0.2,0.8-1.1,0.8-0.5,1.5
		c-0.5-0.1-1.5,0.1-1,0.5c-0.1,0.1-0.2,0.2-0.4,0.3c0,0,0-0.1,0-0.1c-1.4,0.1-2.4,0.8-3.9,0.8c0.6,0.9,2.7,0.8,3.5,0.3
		c0.4,0.5,0.9,0,1.4,0.3c0.5,0.6-0.8,0.4-0.7,1.1c-1.6,0.4-3.4,0.6-5,1c-1.4-0.9-1.9,0.8-3,1.1c0.1-0.2,0.4-0.3,0.3-0.8
		c-1.4-0.5-4.1-0.3-5.1-0.7c0-0.6-0.8-0.3-0.7-1c0.5,0,0.9-0.1,1.1-0.4c0.8,1.4,4.2,0.8,5.1,0c0.1-0.5,0.1-0.9-0.1-1.4
		c-1.6,0.7-3.5-0.7-4.7,0c0.3-1.2-1.4-0.6-1.4-1.6c0.5-0.5,1.6,0.5,1.9-0.3c1,0.5,2.9,0.7,4.3,0.4c0.4-0.7,0.3-1.7,0.1-2.6
		c-2.1,0.2-5,0.1-6.9-0.7c0-0.1,0.1-0.1,0.1-0.1c0.1-1-1.5-1.1-1.2-1.9c0.7-0.1,1.5,0.1,1.8,0c0.2-0.2,0.1-0.2,0-0.4
		c1.4,1,4.1,1.5,6.1,0.9c0-1,0-2.2-0.7-2.7c-1,0-3.1,0.4-4.6,0c-1-0.2-1.8-1.3-2.6-0.9c-0.1-1.1-1.5-0.9-1.6-2
		c0.6-0.6,1.6,0.7,2-0.1c1.5,0.9,4.9,1.6,6.4,0.3c-0.1-1.7-0.8-2.9-1.5-4.1c-2.7,1.7-7.8,1.1-9.8-1c0-0.3,0-0.5-0.1-0.7
		c-0.4-0.3-1.3,0-1.6-0.3c0.1-0.4-0.2-0.4-0.1-0.7c0.3-0.4,1.3-0.2,1.8-0.5c2.1,1,6.8,2,8.8,0.3c-0.1-0.6-0.5-1.3-0.8-1.9
		c-0.5-0.8-1-1.9-2-2c-0.7-0.1-1.2,0.4-1.9,0.5c-3.2,0.7-5.9-0.7-8.1-2c-0.1,0.1-0.1,0.2-0.3,0.3c0.1-1-1.3-0.3-1.9-0.4
		c-0.6-0.8,0.8-1.1,0.5-1.6c2,0.5,5.5,2.1,8.3,1.2c0.6-0.2,1.7-1,1.8-1.6c0-0.8-1.1-2.1-1.8-2.6c-0.7-0.5-2.4-1.2-3.1-1.2
		c-1.1,0-2.6,1.1-4.2,1.1c-2.2,0-3.6-0.9-5-1.8c-0.4-0.1-0.3,0.3-0.5,0.3c-0.1-1-1.4,0.1-1.9-0.4c0-0.2,0-0.4,0-0.5
		c0-0.8,1.5-0.3,0.9-1.1c2.8,1,7.6,0.8,9.6-1.2c-0.6-1.7-2-2.7-3.9-3.5c-0.7-0.3-1.5-0.7-2-0.7c-1.1,0-2.6,1-3.9,1.4
		c-0.8,0.2-1.9,0.6-2.8,0.5c-0.9-0.1-1.8-1.5-2.7-0.8c-0.1-0.9-2,0.1-1.9-0.9c-0.3-0.6,0.8-0.9,0.7-1.8c1.6,0.6,7.9-0.6,7.9-2.4
		c0-0.8-3.2-3-4.1-3.1c-2.1-0.4-4.1,1.2-6.1,1.2c-1.5,0-2.3-1.3-3.5-0.3c0-0.1,0-0.3,0-0.4c-0.5-0.4-0.9,0.4-1.8,0.1
		c0-0.2-0.2-0.2-0.3-0.4c-0.1-0.6,0.2-0.9,0.1-1.6c-0.1,0-0.3,0-0.4,0c1.6-1.5,5.8-0.8,7.9-1.9c1.8-0.9,0.7-2.1-0.4-3.1
		c-1.3-1.1-1.3-1-3.3-1.5c-1-0.2-1.6-0.9-2.4-0.8c-2.3,0.1-4.1,2.5-7.2,1.5c-0.1,0.1-0.1,0.2-0.3,0.3c-0.5-0.4-1.1,0.9-1.9,0.3
		c-0.6-0.7,0.6-1.5-0.1-1.9c1.8-2.1,5.3-2.6,7.6-4.3c-0.2-0.8-1.1-1.3-1.8-1.9c-1.2-1-2.6-2.3-4.7-2.4c-3.2-0.2-4.5,2.8-7,3.7
		c0,0.1,0,0.3,0,0.4c-0.9,0-0.9,0.8-1.8,0.8c-0.1-0.1-0.2-0.1-0.4-0.1c-0.4-0.4,0.2-1.7-0.4-1.9c0.1-0.1,0.3-0.3,0.4-0.4
		c-0.2-3.5,4.1-3.7,5.6-6c-1.6-0.8-2.8-2.4-4.7-2.6c-4.4-0.4-5.7,3.7-7.7,6.1c-0.1-0.8-0.5,0-1.1-0.1c-0.9-0.3-0.5-2.9-1.6-2
		c0.4-3.5,3.4-4.5,5.3-6.6c-1.7-1.1-3.7-1.8-6.6-1.6c-2,1.1-2.6,3.5-3.7,5.6c-0.1,0.4,0.3,0.3,0.3,0.5c-1,0.1-0.8,1.1-1.6,1
		c-0.9-0.1-0.3-1.3-1.5-1.4c-0.1-0.3,0.1-0.4,0.1-0.5c-2.4-2.9,2-5.8,3.4-7.6c-1.3-1.4-4.5-1.7-6.1-0.7c-2,1.3-2.1,4.4-2,6.9
		c-0.8,0-0.6,0.9-1.5,0.8c-0.7-0.4-0.4-1.9-1.4-2c0.1-0.1,0.1-0.2,0.1-0.4c-0.2-0.4-0.7-0.5-0.7-1.2c0.3-2.9,2-4.3,3.4-6.1
		c-2.7-1.3-6.4-1.3-7,1.8c-0.4,1.6,0.2,3.4,0.8,4.7c-0.8,0.2-0.5,1.4-1.2,1.8c-1.1,0.2-0.8-1.6-1.8-1.1c0.2-1.2-1-1.3-1.2-2.2
		c-0.8-2.6,1-4.5,1.9-6.2c-0.9-0.3-2.2,0.2-3.4,0c-0.1,0.3-0.6,0.3-0.8,0.5c-2.1,2.3-0.2,6.2,1,8.3c-0.8-0.1-0.6,1-1.5,0.8
		c-0.3-0.3-0.4-0.8-0.5-1.2c-0.3,0-0.5,0-0.7,0.1c0.1-0.2,0.2-0.4,0.1-0.7c-1.3-0.9-2.1-2.2-1.9-4.6c0.4-0.7,0.8-2,0.8-2.7
		c-1.6-0.1-3,0.7-3.4,1.9c-1.1,3.4,2.1,4.7,2.7,7.3c-0.6-0.7-0.7,0.4-1.1,0.7c-0.7,0-0.5-1.3-1.2-0.8c0.2-1.3-1.6-1.4-1.9-2.6
		c-0.5-1.8,0.5-3.5,0.3-5.1c-4.3,0.7-2.2,7.9,0.7,9.1c-0.3,0.3-0.1,1.2-0.7,1.2c-0.2-0.3-0.2-0.9-0.4-1.2c-2,0-2.9-2.3-2.7-4.7
		c0.2-2.4,2-4.7,0.5-6.1c0,0,0-0.1,0-0.1c0.1,0,0.2,0,0.3,0c0.3-0.3,0.1-1.1-0.4-1.1c0,0.2,0,0.2-0.1,0.3c-0.1-0.8-0.6-2.2,0-2.8
		c0.4-0.3,0.5,0.4,1,0.4c-1.1,1.7,1.6,3.5,3,2.3c-0.4-1.3-1.4-3-1.1-4.7c0.2-0.8,0.9-1.3,1.1-2c0.2,0.4,0.5,0.4,0.9,0.3
		c-0.2,0.6,0.3,0.6,0.5,0.8c-0.3,0-0.5,0-0.7,0.1c-1.5,3.1,1.7,6,4.6,4.6c-1.5-2.4-1.6-6.3,0.5-8.3c0-0.1,0-0.3,0-0.4
		c0.8,0,0.9-1,1.8-0.5c0.2,0.7-0.9,1.3-0.1,1.8c-1.6,0.9-2.1,3.9-0.8,5.6c1.3,0.8,2.9,2.8,5,1.6c0-1.4-1.2-2.7-1.4-4.5
		c-0.1-0.8,0.2-1.4,0.1-2.3c0.7-0.8,1.4-1.6,1.6-2.8c0.6,0.3,1.5-0.7,2.2,0C28.7,93,27.7,93.7,28.3,94.2z M55,102.9
		c0-0.3,0.2-0.3,0.1-0.5c-0.2,0-0.3-0.2-0.5-0.1C54.4,102.6,54.5,102.8,55,102.9z M54.1,106.3c-0.1-0.6,0.2-0.9,0.1-1.5
		c-0.2,0-0.2-0.2-0.4-0.1C53.8,105.3,53.7,106,54.1,106.3z M54.1,108.9c-0.1-0.3-0.1-1.5-0.3-1.2C53.9,108,53.5,108.9,54.1,108.9z"
		/>
	<path class="st2" d="M98.6,11.2c0,0.2-0.2,0.1-0.4,0.1c-0.2,0.6,0.4,0.6,0.9,0.5c-0.4,0.8,1,0.7,0.7,1.8c-0.7,0.7-1.4-1.1-1.6,0
		c-0.9-1.4-4.3-2-5.8-0.8c-0.2,0.6-0.5,1.7,0,2.2c2.2-1,4.4,0.2,6.5,0.5c-0.6,0.8,0.7,1,0.3,1.6c-0.5,0-1,0-1.5,0c0,0.1,0,0.2,0,0.3
		c-1.5-0.9-4-2.1-5.6-0.7c-0.2,0.7-0.2,2.2,0,2.8c1.7,0.3,2.6-0.5,3.9-0.3c1.6,0.2,2.7,1.9,4.2,2.3c0,0.3-0.3,0.6,0,0.8
		c0.4,0.3,1.1-0.2,1.5,0.3c-0.3,1.1-1.5-0.2-2,0.5c-1.4-1.4-5.1-2.2-7.5-1.2c-0.2,1.3,0,3.2,0.5,4.2c1.9-0.6,4.7-0.9,6.8,0.1
		c1.2,0.6,1.8,2.1,3.3,1.8c-0.1,0.8,1.1,0.3,1.1,1.1c-0.2,1.2-1.4,0-1.9,0.7c-0.6-0.7-4.4-1.7-6.2-1.6c-0.9,0-2.1,0.5-2.3,1.1
		c0,1.5,0.5,3.6,1.9,4.2c2-0.5,3.4-1.1,5.4-0.5c1.9,0.5,3.1,2.8,4.6,1.8c0.1,0.6,1.3,0.2,1.4,0.8c0.1,0.8-1.2,0.7-0.7,1.5
		c-2.8-0.8-7.2-2.6-10-0.5c0.4,2,1.2,4.7,3.4,4.7c1.8,0,4.2-2.1,6.9-0.9c1.1,0.4,2.3,2.9,3.1,1.6c0,0,0,0.1,0,0.1
		c0.4,0.4,1.3-0.4,1.6,0.3c0.3,0.3-0.3,0.4-0.1,0.9c0.1,0,0.3,0,0.4,0c-2.9,1.6-8.5-1.3-10.8,1.6c0.7,1.3,2.6,4.1,4.6,4.2
		c1.6,0.1,3.2-1.3,5.1-1.2c0.6,0,1.4,0.1,2,0.3c1.3,0.4,2.4,2,3.3,0.7c0.1,0.7,1.1,0.4,1.5,0.8c0.3,0.9-0.9,1.2-0.1,1.8
		c-0.7-0.3-1.3,0.1-2.3,0.1c-2.2,0.1-7.7-1.2-7.7,1.4c0,0.8,1.7,2,2.3,2.6c1,0.9,2.1,2.1,3.8,1.9c1.2-0.2,2.3-1.2,3.7-1.4
		c2-0.3,3.4,0.3,4.9,0.7c0.1-0.2,0.3-0.4,0.4-0.7c0.5,0.3,1.4-0.5,1.9,0.1c0.1,0.4-0.3,1.5,0.3,1.5c-2.4,1.7-7,1.2-8.7,3.7
		c1.8,1.4,3.3,4.4,6.1,4.1c1-0.1,2-1.2,3.3-1.5c0.9-0.2,2-0.5,2.8-0.5c1,0,2,0.8,2.3-0.4c1.2-0.3,2.3,0.2,2.7,1.4
		c-1,1.1-1.5,2-3.3,2.7c-1.2,0.5-4.9,0.6-5,1.9c-0.1,0.6,2.5,2.7,3,3c0.6,0.4,2,1.2,2.7,1.2c2.2,0,4.7-3.6,8-3.3
		c0.3-0.3,0.6-0.7,0.8-1.1c0,0.8,1.3,0.2,1.6,0.5c0.4,0.2,0.1,1.1,0.7,1.1c-0.6,0.5-0.8,1.3-1.1,2.2c-1.9,1.6-4.7,2.3-6.2,4.2
		c2.1,1.3,4,4.2,7.2,3c0.7-0.3,2-1.8,3.3-2.7c0.8-0.6,1.7-0.8,1.9-1.9c0.4,0.4,0.7-0.1,1.1-0.1c0.5,0.3,0.7,0.9,1.1,1.4
		c-0.1,0.1-0.1,0.4-0.3,0.4c0.9,3.6-2.4,4.9-4.1,6.6c1.1,0.7,2.7,2.2,4.2,2.4c4,0.7,5.3-3.2,6.2-6.2c0.6,0.4,1-0.2,1.5-0.3
		c0.7,0.1,0.5,1.1,1.2,1.2c-0.2,0.2-0.3,0.5-0.4,0.8c1.9,3.4-2,5.1-3,7.3c3.1,1.9,8.2,1.7,8.7-2.3c0.1-1-0.2-1.7-0.1-2.7
		c0.8-0.3,1.2-0.9,2.2-1c0.2,0.1,0.3,0.2,0.4,0.4c-0.5-0.1-0.2,0.7,0.1,0.5c-0.2,1.2,0.7,1.6,0.8,2.6c0.3,2.4-1.8,4-2.6,5.7
		c2.4,1.8,6.4,1.4,7.3-1.4c0.7-1.9-0.8-4-0.8-5.6c0.3,1.1,1-0.6,1.8-0.4c0.7,1.4,2.1,2.3,2.3,3.9c0.2,2.3-1.8,3.8-2.6,5.6
		c2.2,0.7,4.6,0.7,5.7-0.9c1.2-1.8,0-4.7-0.8-6.5c0.8,0.1,1.2-1,2.2-0.1c0.2,0,0.1-0.2,0.1-0.4c0.3,1.4,1.7,2.4,1.8,4.1
		c0.1,1.7-1,3.1-1.6,4.5c0.8,0.3,2.2,0.1,3.3,0.1c3-1.9,0.4-5.9-0.4-8.5c0.7,0.1,0.5-0.6,1.1-0.5c0.6,0,0.4,1.1,1.1,0.5
		c-0.4,0.8,0.8,1.2,1.2,2c1,1.8,0.4,3.6,0,5.8c1.2,0.2,2.4-0.3,2.7-1.1c1.1-2.7-1.3-5.7-2.2-7.2c0.3-0.1,0.3-0.6,0.5-0.8
		c0.5,0.2,0.6,0.9,1.5,0.7c0,0.1-0.1,0.1-0.1,0.3c1.8,1,1.9,4.7,2,6.4c0-0.1,0-0.1,0.1-0.1c-0.2,1.6,2,3.1,1.1,5c0,0-0.1,0-0.1,0
		c0.4-1.2-1.9-2.6-2.8-1.5c0.2,1.1,1.1,2.8,1.6,4.1c-0.3,0-0.4,0.1-0.4,0.4c-0.5,0-0.2-0.8-0.7-0.8c0.1-0.1,0.1-0.2,0.1-0.4
		c-1.4-1-2.4-3.6-4.9-2.7c0.8,2,2.4,3.4,1.6,6.5c-0.5,0.7-1.1,1.2-1.6,1.8c0,0.2,0,0.4,0,0.5c-0.5,0.2-0.3,1-0.5,1.5
		c-1.2,0,0-1.7-0.9-1.8c3.8-3.2,0.4-8.8-4.3-8.3c0.4,1.9,1.8,2.2,1.8,4.6c0,0.8-0.3,1.7-0.5,2.4c-0.4,1-1.3,1.8-0.7,2.7
		c-0.7-0.5-1,0.4-1.2,0.8c-0.4-0.3-0.4-1-0.7-1.5c-0.3,0-0.3,0.4-0.5,0.4c0.3-0.9,1.5-3.2,1.6-4.3c0.3-2.1-1.3-5.1-3.4-5.7
		c-1.1-0.3-2.2,0-3.3-0.3c0.2,1.9,1.5,2.9,1.1,5.2c-0.3,1.6-2.2,3-1.5,4.1c-0.7,0-0.7,0.6-1.5,0.4c-0.1-0.3-0.1-0.7-0.4-0.8
		c1.1-2,1.5-6.2,0.1-8c-1.2-1.6-3.2-2.2-5.7-2.7c-0.2,1.2,0.8,3.2-0.5,3.5c0.2,0.7,0.4,2.7-0.3,3c-0.5-0.5,0.3-1.6-0.1-2
		c0,1.8-0.5,3.6-0.4,5.2c-0.3-0.7-0.9,0.2-1.4-0.1c-0.1-0.3-0.2-0.6-0.1-1.1c-0.4-0.1-0.4-0.1-0.7,0.1c1-1.5,0.7-4.3,0.9-6.5
		c-0.4-0.7-0.7-1.4-0.8-2.3c-1.6-1.8-4-2.7-6.6-3.4c-0.3,1.8,2,5.2-0.3,6.5c0.6,1.2-0.5,2-0.3,2.8c-0.7-0.5-0.8,0.7-1.6,0.5
		c-0.7,0,0-1.3-1-1.1c0.3-0.8,0.4-2,0.8-2.7c0.6,0.3,1.2,0.3,1.5-0.4c-0.7-0.3-1.4,0.2-2-0.3c0.5-6.1-2.7-9.1-7.2-10.6
		c-0.7,1.6,0.2,2.8,0,4.5c-0.2,1.6-1.6,2.8-1.4,4.1c-0.8,0-0.8,0.8-1.6,0.8c-0.2-0.6-0.3-0.7-0.1-1.4c-0.3-0.3-0.4,0-0.7,0.1
		c0.7-0.6,0.1-1.3,0-2.2c-0.2-1.7,0.4-4,0.1-6c-0.2-1.6-1.2-2.5-1.5-3.7c-1.9-0.7-3.2-2.6-5-3c-0.7,1.8,0,3-0.3,4.6
		c-0.3,1.9-1.9,2.6-1.9,4.5c-0.7-0.5-0.6,0.7-1.5,0.5c-0.4-0.3-0.2-1.1-0.7-1.2c1-0.8,0.4-1.8,0.3-3c-0.2-1.6,0.3-3.5,0.3-5
		c-0.2-4-2.8-6.9-6-7.9c-0.4,3.2-1.8,5.4-3,7.9c-0.7-0.5-0.7,1.3-1.5,0.7c-0.9-0.2,0.3-1.6-0.7-1.8c1.6-0.8,0.8-5.5,1-8
		c0-0.4,0.2-1.2,0.1-1.6c-0.4-3.1-3.8-4.4-5.1-5.6c-1.1,0.8-0.7,1.8-1.1,3c-0.6,1.9-2.2,3.1-2.6,4.9c-0.7-0.5-0.8,0.6-1.6,0.4
		c-0.2-0.4-0.2-1.1-0.4-1.5c0.3-0.2,0.6-0.3,0.8-0.5c-1.2-4,1.9-7.7,0.7-10.6c-0.8-1.8-3.1-2.6-4.3-4.3c-1.9,1.8-2.4,5-4.2,6.9
		c-0.7-0.5-1.1,0.9-1.9,0.3c-0.5-0.7,1-1,0.4-1.8c0.2,0,0.2-0.1,0.4-0.1c0.3-3.4,1.6-5.9,1.9-9.5c-1.1-1.3-2-3-3.3-4.2
		c-2.1,1.3-2.9,3.9-4.7,5.6c0,0.2,0.1,0.2,0.1,0.4c-1-0.2-0.7,0.7-1.6,0.5c-0.1-0.1-0.1-0.2-0.3-0.3c0.1-0.6,0.9-1,0.7-1.5
		c0.2-0.1,0.3-0.2,0.5-0.3c-0.7-3.4,3.1-6.3,3-8.5c-0.1-1.4-1.7-2.8-2.3-4.2c-2-0.1-2.7,1.8-3.8,3c-0.7,0.8-1.6,1.1-1.8,2
		c-0.7-0.4-0.8,0.7-1.8,0.5c-0.1-0.7,0.9-1,0.4-1.6c0-0.3,0.5-0.1,0.5-0.3c0.5-1.2,0.4-2.1,0.9-3.3c1-2,3.6-3,3.9-4.7
		c0.7-4.2-5.3-3.5-6-0.4c-0.1,0-0.1-0.2-0.1-0.3c-0.7-0.1-0.5,0.7-1.4,0.5c-0.2-0.2,0.2-1.1-0.1-1.5c0.8-0.2,1.1-1.8,1.9-2.7
		c1.3-1.5,4.3-1.9,4.1-3.5c-0.1-0.5-1.7-2-2.6-2.2c-1.3-0.2-3.3,0.9-3.8,1.9c-0.6-0.4-0.8,0.8-1.5,0.3c-0.1-0.6,0.7-0.7,0.3-1.2
		c1.8-1.8,3.2-4,6.6-4.1c-0.5-2.5-4.2-2-5.8-0.9c-0.1,0.2-0.1,0.6-0.3,0.7c-0.3-0.4-0.8-0.5-0.8-1.2c0.2,0,0.3,0.2,0.5,0.1
		c1.6-1.5,4.1-2.8,6.9-2.7c0.8-1.8-2.1-2.3-3.4-1.6c-0.1-0.6-1.4,0-1.8-0.4c0.6-1.2,2.3-1.6,4.3-1.1c0.7,0.2,1,0.7,1.5,0.7
		c0.9-0.1,2.1-1.6,3.4-1.9C95.9,10.9,96.8,11.3,98.6,11.2z"/>
	<path class="st1" d="M181.4,86.2c-1.7-1.9,3.1-2.4,2.2,0c-0.7,0.6-0.5-0.6-1.1-0.5C181.9,85.7,182.1,86.4,181.4,86.2z"/>
	<path class="st1" d="M154.5,79.6c0.4-1.7,3.4-0.7,2.7,0.9c-0.7-0.1-0.5-1.1-1.2-1.2C155.5,79.4,155,80,154.5,79.6z"/>
	<path class="st1" d="M115.6,48.8c2-1.3,3.9,2.3,1.4,2.6c-0.8-0.5,0.4-0.9,0.1-1.8C116.7,49.3,115.6,49.6,115.6,48.8z"/>
	<path class="st1" d="M102.8,28.1c3.8-0.6,1.1,4.9-0.8,1.8c0.5-0.7,1.7,0.5,1.9-0.7C103.9,28.5,102.8,28.9,102.8,28.1z"/>
	<path class="st1" d="M88.2,42.2c0.4,4.3-6-0.6-1.4-1.1c0.5,0.7-0.5,0.9-0.4,1.6C87.4,42.9,87.5,41.8,88.2,42.2z"/>
	<path class="st1" d="M170.2,104.9c0.9,2.7-4,1.2-1.9-0.4c0.3,0.1,0.3,0.5,0.4,0.8C169.5,105.5,169.5,104.9,170.2,104.9z"/>
	<path class="st1" d="M183.3,105.1c2,2.9-4.2,1.6-1.5-0.3c0.9,0.1-0.2,1.8,0.9,1.8C183,106.1,182.8,105.2,183.3,105.1z"/>
	<path class="st1" d="M116.1,168.9c-0.3-4.3,5.6,0.2,1.9,1.2c-0.6-0.5,0.2-1.2-0.1-1.9C117,168.1,116.8,169.2,116.1,168.9z"/>
	<path class="st1" d="M48.1,120.9c-1,2.1-4.4-0.4-2.7-2.2c1.1-0.9,0.8,1.8,1.6,2C47.6,121,48,120.1,48.1,120.9z"/>
	<path class="st1" d="M93,159.4c-0.6,1.7-3,0.6-3.3-0.7c0.4-0.6,0.8-1.4,1.9-1.4c0.3,0.5-1.1,0.8-0.5,1.6
		C91.7,159.1,93,158.4,93,159.4z"/>
	<path class="st1" d="M102.5,191.2v-0.5c-0.9-0.3-1.7-0.6-2.4-1c-1.1-0.5-2-0.9-3.1-1.1c-0.5-0.1-1-0.1-1.7-0.1c-0.3,0-0.7,0-1,0
		c-0.4,0-0.7,0-1.1,0c-0.4,0-0.7,0-1.1,0c-20.8-1.5-38.5-9.2-54.4-23.3c-11.6-10.3-19.7-23.1-24.3-37.9c-0.2-0.7-0.4-1.5-0.7-2.4
		c-0.5-1.8-1-3.8-1.7-5.4c-0.5-1.1-1-1.9-1.9-2.9c-2.3-2.6-2.8-6.8-1.2-10.7c-2.3-4.6-0.1-10.5,1.5-14.8l0.4-1.1
		c0.4-1,0.6-2.2,0.8-3.4l0.1-0.3c1.3-6.5,2.4-10.9,4.1-15.5c6.8-17.9,18.6-32.5,34.9-43.4c1.3-0.8,2.6-1.6,3.9-2.2
		c0.8-0.4,1.6-0.9,2.4-1.3c4.8-2.8,10.4-5.2,17.1-7.3c0.4-0.1,0.8-0.2,1.2-0.3c0.9-0.2,1.9-0.5,2.4-0.8c0.5-0.3,1-1,1.6-1.6
		c0.6-0.8,1.2-1.5,2-2.1c2.1-1.5,4.3-2.2,6.8-2.2c1.1,0,2.2,0.2,3.4,0.5c1.8-1.1,3.7-1.7,5.8-1.7c0.9,0,1.9,0.1,3,0.3
		c1.9,0.4,3.4,1.4,4.7,2.2c0.9,0.5,1.7,1.1,2.6,1.4c1.5,0.5,3.3,0.7,5,0.9c0.9,0.1,1.8,0.2,2.6,0.3c17.4,2.7,32,9.1,44.5,19.5
		c13.4,11.1,22.4,24.5,27.7,40.8c0.1,0.5,0.3,1,0.4,1.5c0.2,0.8,0.4,1.7,0.8,2.3c0.5,1.1,1.7,2.7,2.8,4.1c0.2,0.2,0.3,0.4,0.5,0.6
		c1.6,1.9,3.3,3.8,2.1,7.9c-0.1,0.4-0.3,0.9-0.5,1.3c-0.2,0.4-0.4,0.9-0.4,1.1c0,0.1,0.2,0.4,0.3,0.7c0.2,0.3,0.3,0.6,0.5,0.9
		c1.6,4.8-0.7,8.9-2.6,12.1c-0.2,0.3-0.3,0.6-0.5,0.8c-1.7,20.2-9.5,37.1-24.4,53.2c-8.9,9.7-21.2,17.6-35.5,22.9
		c-0.8,0.3-1.7,0.6-2.5,0.8c-1.6,0.5-3.1,0.9-4.4,1.7c-0.7,0.4-1.3,0.8-2,1.3c-1.8,1.3-3.9,2.8-6.9,2.8c-0.5,0-1,0-1.5-0.1
		c-0.4-0.1-0.8-0.2-1.1-0.4c-0.1-0.1-0.2-0.1-0.3-0.1c-0.7,0.4-2,1.1-2.4,1.4l-0.2,0.4L102.5,191.2z M93.9,184.5
		c1.1,0,2.3,0,3.6,0.3c1.2,0.2,2.4,0.7,3.7,1.2c1.7,0.7,3.4,1.4,5.2,1.4c0.5,0,1-0.1,1.5-0.2c0.2-0.3,0.6-0.4,0.8-0.5l0.2-0.1l0.1,0
		c0.1,0,0.4-0.2,0.6-0.4c0.4-0.4,1-0.9,1.9-0.9c0.4,0,0.9,0.1,1.3,0.4l0.1,0.1c0.4,0.3,1,0.4,1.5,0.4c0.7,0,1.3-0.1,1.9-0.4l0,0
		c0-0.2-0.1-0.4,0-0.5c-0.2-0.1-0.3-0.3-0.5-0.4l-0.2-0.2l0-0.3c-0.1-0.7,0.3-1.2,0.4-1.4l0.1-0.4l0.5-0.2l0.3-0.3l0.4,0
		c0.2,0,0.3,0,0.4,0c1.4,0,2,0.8,2.4,1.5c1.6-1.2,3.6-1.9,5.5-2.5c0.3-0.1,0.7-0.2,1-0.3c6.4-2.1,12.7-5.3,17.8-7.9l0.1-0.1
		c5.3-3.5,10.3-6.7,14.7-10.9c5.2-4.9,9.5-10.2,13.1-14.8c0.6-1.3,1.4-2.5,2.1-3.6c0.9-1.4,1.8-2.8,2.4-4.5l0-0.1l0-0.1
		c3.6-6.3,7.9-16.8,9.2-27.4c0.1-0.6,0.1-1.3,0.1-1.9c0.1-1.2,0.1-2.4,0.4-3.5c0.3-1.2,1-2.1,1.6-2.9c0.5-0.6,0.9-1.2,1.1-1.8
		c0.3-0.8,0.2-1.3,0-1.9c-0.1-0.7-0.3-1.5,0.1-2.3l0.3-0.5c0-0.4-0.2-0.9-0.6-1.6c-0.4-0.8-0.8-1.6-0.7-2.6l0-0.1l0.1-0.1
		c0.2-0.4,0.4-0.7,0.6-1.1c0.4-0.6,0.7-1.2,0.7-2l0-0.1l0-0.1c0.4-1.5-0.1-2.4-0.7-2.9c-0.1,0.1-0.1,0.3-0.2,0.4l-0.3,0.4l-0.4,0
		l-0.1,0.2l-0.4,0.1c-0.2,0-0.3,0-0.5,0c-0.4,0-0.7-0.1-0.9-0.2c-0.1,0.1-0.3,0.2-0.5,0.3L185,87l-0.4-0.6c-0.2-0.3-0.8-1.2-0.5-2.1
		c0.3-0.9,1.3-1.1,2-1.3c0.2,0,0.5-0.1,0.7-0.2c-2-2.1-2.8-4.9-3.6-7.7c-0.2-0.7-0.4-1.4-0.7-2.1c-3.8-11.7-10.6-22.7-19.7-31.7
		c-10.4-10.4-23.1-17.9-36.8-21.8c-6.3-1.8-13-2.6-19.2-3.2c-1.7-0.2-2.8-1-3.8-1.8c-0.3-0.2-0.6-0.5-0.9-0.7c0,0.1,0,0.1,0,0.2
		c-0.2,1-1.2,1.8-2.4,1.8c-1.2,0-2.2-0.8-2.4-1.9l0-0.2l0.1-0.2c0.2-0.7,0.5-0.9,0.8-1c0,0,0-0.1,0-0.1c-0.1,0-0.2,0-0.4,0
		c-0.4,0-0.8,0-1.1,0c-0.3,0-0.6,0-0.8,0c-0.5,0-0.8,0-1.2,0.1c-0.4,0.1-1,0.5-1.5,0.9c-0.7,0.5-1.3,1-2.1,1l-0.1,0
		c-0.6,0-1-0.3-1.3-0.5c-0.2-0.1-0.3-0.2-0.4-0.2c-0.5-0.1-1-0.2-1.4-0.2c-0.1,0-0.1,0-0.2,0c0.1,0.2,0.2,0.4,0.2,0.5l0.1,0.3
		l-0.1,0.3c-0.4,1-1.2,1.5-2.1,1.5c-1,0-2-0.6-2.7-1.4c-0.8,0.5-1.4,1.2-2,2c-0.6,0.8-1.3,1.6-2.2,2.2c-1.1,0.7-2.6,1.1-4.1,1.4
		c-0.8,0.2-1.5,0.4-2.1,0.6c-6.5,2.2-13.1,5.4-19,9c-8.5,5.2-15.5,12.2-21.7,19.1c-0.3,0.4-0.7,0.9-1.1,1.5
		c-0.3,0.5-0.7,1.1-1.1,1.6c-0.3,0.5-0.7,0.9-1.1,1.4c-0.4,0.5-0.9,1-1.2,1.4c0,0,0,0,0,0c0,0.2,0,0.6-0.2,0.9
		c-0.4,0.8-1,1.5-1.5,2.1c-0.4,0.5-0.8,1-1,1.4c0,0.1-0.1,0.3-0.1,0.5c-0.1,0.4-0.2,0.8-0.4,1.1c-0.2,0.3-0.5,0.5-0.7,0.7
		c-0.1,0-0.1,0.1-0.2,0.1c-0.3,0.5-0.5,1.1-0.8,1.7c-0.5,1.1-0.9,2.3-1.8,3.3c-1,2.8-2,5.5-3.1,7.9v0.9l-0.1,0.2
		c-1.7,4-2.6,8.9-3.4,13.6c-0.1,0.8-0.5,2.4-0.5,2.4l-0.1,0.1c-0.9,1.9-1.7,3.9-2.2,6.2c0.7,0.3,1.3,0.9,1.6,1.7l0.2,0.6l-0.5,0.4
		c0,0,0,0.1-0.1,0.1c-0.2,0.4-0.6,1.2-1.7,1.2c-0.1,0-0.2,0-0.2,0c0,0.2,0.1,0.4,0.1,0.6c0.1,0.3,0.1,0.5,0.1,0.8
		c0,0.1,0.1,0.3,0.2,0.4l0.1,0.2c1.1,1.3,0.5,2.9,0.1,4.4c-0.2,0.7-0.5,1.5-0.6,2.3c-0.1,1.3,0.2,2.6,0.7,3.2c0.3,0.3,0.6,0.5,1,0.5
		l0.6,0l0,0l0.2-0.2l0.7,0.3c0.6,0.3,1,0.7,1.1,1.2c0.2,0.8-0.3,1.4-0.6,1.8c-0.1,0.1-0.2,0.2-0.2,0.3c0,0.5,0.4,1.2,0.7,1.8
		c0.3,0.5,0.5,0.9,0.6,1.4c0.1,0.3,0.1,0.7,0.1,0.9c0,0.2,0,0.3,0,0.4c1.5,6,3.8,11.8,7.2,18.3c3.1,6,7.2,11.6,12,16.9
		c4,4.3,8.2,8,13.4,11.7c5.6,4,11.4,7.2,17,9.4c9.2,3.6,17.5,5.7,24.6,6.2c0.5,0,1.1,0,1.7,0C92.1,184.5,93.5,184.5,93.9,184.5z"/>
	<path class="st1" d="M103.5,190.2c0-0.1,0-0.2,0-0.3c-2.5-0.7-4.2-1.9-6.4-2.3c-1.7-0.3-3.4,0-5-0.1c-23.3-1.7-40.2-10.9-53.8-23
		c-10.6-9.5-19.1-21.6-24-37.4c-0.7-2.3-1.4-5.5-2.4-7.9c-0.5-1.2-1.1-2.1-2-3.1c-2.2-2.4-2.5-6.5-0.8-10
		c-2.7-4.7,0.2-11.3,1.8-15.6c0.4-1.2,0.7-2.5,0.9-3.8c1.2-6,2.3-10.7,4.1-15.3C23,52.7,35.1,38.6,50.4,28.4c2-1.3,4.2-2.3,6.2-3.5
		c5.1-3,10.7-5.3,16.9-7.2c1.1-0.3,2.8-0.6,3.8-1.2c1.3-0.8,2.3-2.8,3.7-3.8c2.6-1.9,5.9-2.7,9.8-1.5c2.7-1.9,5.5-2.1,8.4-1.5
		c2.9,0.7,4.9,2.7,7.2,3.5c2.4,0.9,5.3,0.8,7.9,1.2c18.3,2.8,32.3,9.5,44,19.2C170.8,44,180.1,56.8,185.6,74
		c0.4,1.3,0.7,2.8,1.2,3.9c0.6,1.3,1.9,3,3,4.3c1.8,2.1,3.6,3.6,2.4,7.6c-0.3,0.9-1,1.9-0.9,2.7c0,0.6,0.6,1.2,0.8,1.9
		c1.6,4.9-1.2,8.9-3.1,12.3c-1.9,22.8-11.6,39.3-24.1,52.8c-9,9.8-21.2,17.5-35.1,22.6c-2.4,0.9-4.9,1.4-7,2.6
		c-2.8,1.6-5.2,4.7-9.8,3.9c-0.7-0.1-1.1-0.6-1.8-0.5c0,0-2.8,1.5-3,1.9C106.7,190.2,105.1,190.2,103.5,190.2z M86.9,14
		c-0.7,1.9-3.1,0.4-3.4-0.8c-2.5,0.7-3.3,3.4-5.1,4.6c-1.5,1-4.1,1.3-6,1.9c-7,2.4-13.6,5.6-19.2,9.1C44.6,34,37.6,41,31.2,48
		c-0.7,0.8-1.4,2.1-2.2,3.1c-0.8,1-1.9,2.1-2.4,3c-0.1,0.2,0,0.6-0.1,0.8c-0.7,1.3-1.9,2.5-2.6,3.5c-0.3,0.4-0.3,1.2-0.5,1.6
		c-0.2,0.3-0.6,0.5-0.8,0.8c-0.9,1.6-1.3,3.5-2.6,5c-1,2.8-2,5.6-3.3,8.1c0,0.3,0,0.6,0,0.9c-2,4.7-2.9,10.5-3.9,16.1
		c-1.1,2.2-2,4.7-2.6,7.5c0.9-0.1,1.6,0.4,1.9,1.2c-0.4,0.3-0.3,1.1-1.1,1.1c-0.4,0-0.6-0.7-1-0.4c-0.6,0.6-0.1,2.1,0,2.8
		c0,0.3,0.2,0.6,0.3,0.8c0,0,0,0.1,0,0.1c1.5,1.4-0.3,3.7-0.5,6.1c-0.2,2.4,0.7,4.7,2.7,4.7c0.2,0.4,0.2,0.9,0.4,1.2
		c0.6-0.1,0.4-0.9,0.7-1.2c1.4,0.6-0.2,1.5-0.3,2.2c-0.1,1.2,1.1,2.8,1.4,3.7c0.1,0.4,0,0.9,0.1,1.4c1.7,6.8,4.3,12.9,7.3,18.6
		c3.3,6.3,7.5,12,12.2,17.1c4.2,4.5,8.5,8.2,13.5,11.8c5.2,3.7,11,7.1,17.2,9.5c7,2.7,16,5.6,24.9,6.2c2.3,0.2,4.8-0.2,7.3,0.3
		c3.3,0.6,7.1,3.7,11.1,2.3c0.1-0.3,0.4-0.4,0.7-0.5c1.1-0.3,1.6-2,3-1.1c1.5,1.2,4.5,0.4,5.8-0.5c-0.3-0.1-0.5-0.3-0.8-0.4
		c-0.2-0.7,1.1-0.5,0.7-1.1c-0.4-0.3-1,0.2-1.4-0.3c-0.1-0.5,0.3-0.6,0.4-0.9c0.2-0.1,0.3-0.1,0.4-0.3c1.7-0.2,1.8,1.2,2.4,2
		c1.9-1.9,4.5-2.5,7-3.4c6.3-2.1,12.5-5.2,18-8c5.4-3.5,10.5-6.8,15-11.1c4.9-4.6,9.1-9.7,13.3-15c1.3-3,3.5-5.1,4.6-8.3
		c4-6.9,8.1-17.5,9.3-27.8c0.2-1.8,0.1-3.7,0.5-5.3c0.5-1.8,2.2-3,2.7-4.6c0.7-1.9-0.4-3,0.1-4.2c0,0,0.1,0,0.1,0
		c0.9-1.9-1.3-3.4-1.1-5c0.5-1.1,1.3-1.9,1.4-3.4c0.7-2.5-0.6-4-2.3-4.6c-0.7,0.1,0,0.8-0.4,1.2c-0.3,0-0.6,0.1-0.7,0.3
		c-0.9,0.2-1-0.5-1.5-0.7c-0.2,0.3-0.2,0.7-0.5,0.8c-1.8-2.5,2.7-1.1,2.7-3.1c-2.7-2.5-3.4-6.2-4.6-10
		c-4.2-12.7-11.4-23.6-19.9-32.1c-9.4-9.4-22-17.7-37.3-22.1c-6-1.7-12.3-2.6-19.4-3.3c-2.8-0.3-3.6-2.7-6.5-3.3
		c0.2,0.9,0.8,0.9,0.7,1.8c-0.2,1.2-2.6,1.3-2.8-0.1c0.3-1.1,0.9,0.7,1.6,0c0.3-1.1-1.1-0.9-0.7-1.8c0.3,0,0.6-0.1,0.7-0.4
		c-0.3-0.2-0.8-0.2-1.2-0.3c-1.8,0.2-2.8-0.2-4.3,0.1c-1.3,0.3-2.5,1.8-3.4,1.9c-0.5,0-0.8-0.5-1.5-0.7c-2-0.5-3.7-0.1-4.3,1.1
		C85.4,14,86.7,13.4,86.9,14z"/>
	<path class="st1" d="M84.3,24.7c0.2,0.2,0.1,0.8,0.1,1.2c-1.7,2.5-4.9-2.2-1.4-2.2c0.4,0.5-0.4,0.6-0.3,1.2
		C83.5,25.5,83.7,24.3,84.3,24.7z"/>
	<path class="st1" d="M105.4,34.8c1-1,3,0,2.6,1.8c-0.4,0.4-1.2,1-1.9,0.5c-0.6-0.8,0.8-0.7,0.7-1.5
		C106.7,34.9,105.5,35.4,105.4,34.8z"/>
	<path class="st1" d="M100.8,60.8c-0.4,3.9-5.6-1.2-1.5-1.5c0.6,0.8-0.9,1.1-0.4,1.8C99.7,61.7,100.2,60.3,100.8,60.8z"/>
	<path class="st1" d="M129.9,62.9c0.4-2.5,4.5-0.6,2.7,1.4C132.2,63.1,131.2,62.7,129.9,62.9z"/>
	<path class="st1" d="M146.2,75.1c0.1-2.8,4.3-0.3,2.2,1.2c-0.4-0.4-0.5-1.1-1.1-1.4C146.9,75,146.6,75.5,146.2,75.1z"/>
	<path class="st1" d="M119.8,78.8c0.3,0.3,0,0.8,0,1.2c-0.4,0.4-1.2,0.4-2,0.4c-1-0.5-1.5-2.3-0.1-2.7c1,0.1-0.2,1.6,0.7,1.8
		C119.1,80.1,119.1,78.3,119.8,78.8z"/>
	<path class="st1" d="M162.3,83.7c-0.7-1.1,1.6-2,2.2-1C163.5,82.8,163.1,83.4,162.3,83.7z"/>
	<path class="st1" d="M169.8,85c-0.1-0.7,1.4-1,1.8-0.4C170.8,84.4,170.1,86.1,169.8,85z"/>
	<path class="st1" d="M176.1,86.6c0-0.2,0-0.5,0-0.7c0.4-0.8,2.1-0.9,2.3,0.1c0,0.2,0,0.4-0.1,0.4C177.4,85.7,176.9,86.8,176.1,86.6
		z"/>
	<path class="st1" d="M130.4,87.5c0.2,0.4,0.1,0.7,0,1.2c-1.3,1.4-3.9-0.7-2.2-1.9c0.5,0.1,0.3,1,0.7,1.2
		C129.7,88.2,129.6,86.9,130.4,87.5z"/>
	<path class="st1" d="M26.2,92.3c0.8-4,6.3,1.1,2.2,1.9c-0.7-0.5,0.4-1.2,0-1.9C27.7,91.6,26.8,92.7,26.2,92.3z"/>
	<path class="st1" d="M34.6,94.5c0-0.5,0-0.9,0.1-1.2c2-1.9,5,1.7,2.2,2.7c-0.9-0.1,0.1-1.4-0.5-1.8c-0.1,0-0.3,0-0.3-0.1
		C35.2,93.9,35.1,94.9,34.6,94.5z"/>
	<path class="st1" d="M141.3,93.6c0.7,2.2-3.5,1.9-2.4-0.4c0.2-0.1,0.4-0.4,0.7-0.1c-0.1,0.7-0.1,0.8,0.1,1.4
		C140.5,94.4,140.5,93.6,141.3,93.6z"/>
	<path class="st1" d="M19.9,93.6c-0.3-1.2,1-1.9,2.3-1.5c0.2,0.6,0.6,1.1,0.7,1.9c-0.3,0.4-0.5,0.9-1.4,0.8c-0.7-0.5,0.3-1,0.1-1.8
		C20.8,92.5,20.7,93.6,19.9,93.6z"/>
	<path class="st1" d="M14,96.4c0.4-2.8,4.4,0.5,1.5,1.1c-0.2-0.2-0.7-0.2-0.5-0.8C14.5,96.9,14.1,96.8,14,96.4z"/>
	<path class="st1" d="M152.2,99.5c0.3,2.6-3.6,1.6-2.6-0.5c0.9-0.3,0.3,1.1,1,1.1C151.4,100.2,151.4,99,152.2,99.5z"/>
	<path class="st1" d="M53.5,102.5c-1-2.2,3.8-1.5,2.4,0.5C55.6,101.8,54.3,101.3,53.5,102.5z"/>
	<path class="st1" d="M161.4,103.5c0,0.1,0,0.2,0,0.3c-0.4,0.5-1.6,0.5-2,0c-0.2-0.3-0.5-1-0.1-1.4c0.3-0.2,0.3-0.3,0.7-0.1
		c-0.1,0.5,0.1,0.8,0.1,1.1C160.5,103.6,161,102.8,161.4,103.5z"/>
	<path class="st1" d="M178,106.3c0,0.2,0,0.5,0,0.7c-0.2,0.4-0.6,0.6-1.1,0.8c-0.7-0.3-1.5-0.5-1.4-1.8c0.3,0,0.3-0.4,0.5-0.4
		c0.2,0.5,0.2,1.2,0.7,1.5C177,106.6,177.4,105.8,178,106.3z"/>
	<path class="st1" d="M21.1,112.9c1,2.7-4,1.7-2.7-0.3c0.2-0.1,0.4-0.2,0.7-0.1c0.2,0.4,0.2,1,0.5,1.2
		C20.6,113.9,20.3,112.9,21.1,112.9z"/>
	<path class="st1" d="M26.7,111.9c0.6,0.2,0.3,1.1,0.5,1.6c-0.5,1.8-4.3,1.1-3.5-1c1-0.6,0.6,1.3,1.8,1.1
		C26.2,113.3,25.9,112,26.7,111.9z"/>
	<path class="st1" d="M32.9,114.3c0,3.7-6.2,0.5-2.8-1.2c1,0.2,0.6,1.6,1.4,2C32.3,115.2,32.2,114.3,32.9,114.3z"/>
	<path class="st1" d="M16.8,113.9c0.8,1.9-3.2,1.7-2.3-0.1c0.7-0.5,0.6,0.8,1.2,0.8C16.1,114.3,16.2,113.1,16.8,113.9z"/>
	<path class="st1" d="M74.5,115.9c-0.3-3.5,5.9,0,2.2,1.6c-0.5-0.5,0.2-1.6-0.4-2.2C75.2,115.1,75.5,116.1,74.5,115.9z"/>
	<path class="st1" d="M40.7,116.6c1.1,3.4-5,1.8-3.1-0.4c1.2,0,0.6,1.2,1.5,1.4C39.8,117.6,39.6,116.7,40.7,116.6z"/>
	<path class="st1" d="M65.2,131.2c-0.4,3.9-5.9-0.9-2-1.6c0.7,0.4-0.4,1.2,0.1,1.9C64.1,132.1,64.7,130.9,65.2,131.2z"/>
	<path class="st1" d="M102.3,142.5c1.3-2.9,5,2.1,1.2,2c-0.6-0.9,0.9-1,0.4-1.9C103.4,142,102.4,143.4,102.3,142.5z"/>
	<path class="st1" d="M87,152.8c-0.3,1.1-2.4,0.7-2.8,0c0-0.8,0-1.5,0.4-1.9c0.4-0.2,1-0.4,1.5-0.1c0.5,0.8-1,0.3-0.9,1.1
		c0,0.2,0,0.4,0,0.5C85.6,152.9,86.9,151.8,87,152.8z"/>
	<path class="st1" d="M108.8,151.8c0.9-3.4,5.4,1.3,1.5,1.6c-0.1-0.3-0.5-0.1-0.4-0.5c0.4-0.3,0.7-0.6,0.8-1.2
		C110,151.2,109.3,152.5,108.8,151.8z"/>
	<path class="st1" d="M97.4,166.5c-3.8,1.3-3.2-4.6-0.1-2.2c-0.5,0.3-1.4,0.1-1.8,0.5c-0.1,0.3,0.2,0.3,0.1,0.7
		c0.4,0.3,1.2,0,1.6,0.3C97.4,165.9,97.5,166.1,97.4,166.5z"/>
	<path class="st1" d="M101.9,173.4c-1.4,0.4-2.7-0.6-2.6-1.8c0.1-1.3,2.4-1.9,3-0.4c-0.4,0.8-1.4-0.5-2,0.1
		C100.4,172.4,101.8,172.3,101.9,173.4z"/>
	<path class="st1" d="M118,174.7c0.8-4.3,5.9,1.5,1.5,1.5c-0.4-0.6,0.6-0.8,0.4-1.6C119.2,174,118.5,175.1,118,174.7z"/>
	<path class="st1" d="M116.8,180.7c1.1-4.2,5.7,2,1.4,1.6c-0.5-0.7,0.7-0.7,0.5-1.5C118.2,180.8,117,181.6,116.8,180.7z"/>
	<path class="st1" d="M104.2,186c-1.9,1.8-4-2.6-0.9-2.4c-0.3-0.8-1-1-0.9-1.9c0.1-1.6,2.7-1.7,3.1-0.3c-0.3,0.7-1.4-0.2-1.9,0.3
		c-0.1,1.1,1.6,0.4,1.4,1.6c-0.2,0.3-0.8,0.3-1,0.7c0.3,0.2,0.5,0.4,0.7,0.7c-0.1,0.4-0.6,0.4-1.1,0.4
		C103.5,185.6,104.2,185.4,104.2,186z"/>
	<path class="st1" d="M82.8,18.2c0,0.7,0.5,0.8,0.8,1.2c-0.1,2.5-3.2,1.2-3-0.4C80.7,18.4,81.8,17.5,82.8,18.2z"/>
	<path class="st1" d="M100.3,21.6c2.7-0.9,3.2,3,0.7,2.7c-0.6-0.1-0.9-0.5-1.2-1.1c0.5-0.7,1.7,0.6,2-0.5c-0.4-0.5-1.1,0-1.5-0.3
		C100,22.2,100.2,21.9,100.3,21.6z"/>
	<path class="st1" d="M138.9,68.8c1-1.5,3.6,0.5,2.3,1.6c-0.6,0-0.3-0.8-0.7-1.1C140.1,69,138.8,69.5,138.9,68.8z"/>
	<path class="st1" d="M189.2,99.8c0.5,0.2,0.4,0.9,0.4,1.5c-1.2,1.8-3.7-1.3-1.5-1.9c0.5,0,0.2,0.8,0.7,0.8
		C188.7,99.9,188.9,99.8,189.2,99.8z"/>
	<path class="st1" d="M93.2,133.7c-0.3-3.7,5.8-0.2,2.3,1.4c-0.7-0.5,0.3-1,0.1-1.8C94.8,132.4,94.2,133.7,93.2,133.7z"/>
</g>
</svg>
