<?xml version="1.0" encoding="utf-8"?>
<!-- Generator: Adobe Illustrator 13.0.2, SVG Export Plug-In . SVG Version: 6.00 Build 14948)  -->
<!DOCTYPE svg PUBLIC "-//W3C//DTD SVG 1.1//EN" "http://www.w3.org/Graphics/SVG/1.1/DTD/svg11.dtd">
<svg version="1.1" id="Layer_1" xmlns="http://www.w3.org/2000/svg" xmlns:xlink="http://www.w3.org/1999/xlink" x="0px" y="0px"
	 width="489.569px" height="479.417px" viewBox="0 0 489.569 479.417" enable-background="new 0 0 489.569 479.417"
	 xml:space="preserve">
<g>
	<path fill-rule="evenodd" clip-rule="evenodd" fill="#FFFFFF" d="M240.352,4.801c1.121,0.206,2.345,0.304,3.229,0.717
		c-0.247,0.717-0.946,0.96-1.78,1.081c-1.349,0.036-2.919,0.274-2.515-1.435C239.703,5.105,240.308,5.231,240.352,4.801z"/>
	<path fill-rule="evenodd" clip-rule="evenodd" fill="#FFFFFF" d="M239.286,11.271c0.727,3.878,6.939,3.631,7.545,0.367
		c0.418-2.3-1.349-2.264-1.806-4.676c7.739,1.417,9.899,7.905,17.244,8.626c18.71,1.83,35.512,4.108,51.38,8.618
		c40.524,11.541,73.771,33.525,98.79,58.562c22.68,22.675,41.781,51.406,52.819,85.152c3.296,10.052,4.995,19.881,12.219,26.58
		c-0.019,5.3-11.86,1.74-7.188,8.268c2.407,3.919,8.748,11.833,5.748,19.047c-0.906,2.193-3.95,3.498-7.183,2.865
		c1.103-6.021,2.682-10.608,0-15.451c-1.175-2.13-4.233-3.175-3.238-5.376c2.436-6.38-10.133-5.062-5.752,0
		c2.273,7.021,8.99,17.549,1.09,22.629c-2.793-0.206-6.416,0.435-8.627-0.354c1.789-3.767,4.502-7.246,4.309-11.855
		c-0.175-4.385-3.941-6.954-4.672-10.783c-0.521-2.749-5.147-2.597-6.107-0.373c0,0.611,0,1.202,0,1.812
		c2.237,4.749,5.377,12.537,2.166,17.24c-2.978,4.354-9.191,4.426-15.097,2.511c2.111-4.689,7.411-8.563,6.828-14.72
		c-0.42-4.39-4.237-6.717-6.106-10.42c-0.856-1.462-4.946-0.888-4.672,1.076c0.035,4.179,3.888,9.738,2.151,14.725
		c-2.515,7.299-13.109,8.38-19.396,3.596c2.004-4.466,7.617-8.811,6.824-15.083c-0.311-2.461-2.556-3.694-2.145-6.829
		c-0.04-0.574,0.152-1.372-0.367-1.439c-0.201-0.521-0.565-0.879-1.085-1.085c-1.533-2.672-7.657-0.493-5.748,2.524
		c-0.157,2.632,0.663,4.64,0.362,7.188c-1.232,10.492-14.8,11.196-22.996,6.106c2.547-5.945,12.939-10.519,7.904-19.405
		c0.327-0.753,0.557-1.596,1.085-2.162c1.708-4.269-6.084-6.976-7.191-2.511c-2.573,7.959-5.793,18.487-16.522,16.527
		c-3.981-0.726-8.278-4.636-11.146-6.47c4.519-4.735,13.28-8.129,10.777-17.599c0.513-0.094,0.422-0.794,0.723-1.081
		c5.582-4.125-5.439-10.595-5.747-3.229c-0.643,2.887-2.925,3.515-5.023,5.026c-3.331,2.381-6.787,6.471-8.63,7.192
		c-8.506,3.309-13.479-4.493-19.048-7.909c4.08-5.147,11.59-6.86,16.527-11.147c0.668-2.206,1.215-4.533,2.883-5.748
		c3.453-3.076-3.583-8.161-6.11-4.313c-0.678,1.004-1.383,1.977-2.158,2.878c-8.667-0.95-15.348,8.654-21.194,8.631
		c-1.964-0.013-5.587-2.139-7.183-3.232c-1.261-0.861-8.094-6.295-7.913-7.91c0.385-3.304,9.984-3.73,13.298-5.022
		c4.673-1.829,5.848-4.403,8.632-7.201c4.761-5.066-6.18-10.083-7.193-3.586c-0.689,3.229-3.491,0.995-6.102,1.08
		c-2.121,0.067-5.268,0.825-7.555,1.439c-3.296,0.875-5.914,3.596-8.618,3.95c-7.425,0.982-11.415-7.071-16.169-10.784
		c4.323-6.563,16.653-5.142,22.998-9.689c1.067-0.74,1.986-1.601,2.515-2.883c-0.17-4.107-7.527-6.874-8.268-1.435
		c-0.207,0.745-0.744,1.166-1.076,1.803c-4.031-1.058-7.739-2.547-12.931-1.803c-3.605,0.516-6.435,3.152-9.708,3.6
		c-4.609,0.614-7.43-2.551-10.049-5.035c-1.677-1.596-6.133-4.708-6.115-6.833c0.067-6.694,14.747-3.309,20.478-3.587
		c2.613-0.13,4.125-1.062,6.106-0.354c6.883-0.722,1.699-10.371-3.586-6.829c-2.399,3.439-5.166-0.713-8.632-1.794
		c-1.717-0.547-3.914-0.699-5.386-0.717c-5.044-0.108-9.396,3.466-13.653,3.219c-5.335-0.295-10.298-7.59-12.218-11.128
		c6.089-7.748,21.128-0.18,28.756-4.322c5.604-2.471-3.467-9.161-5.027-3.583c-2.31,3.269-5.457-3.152-8.276-4.313
		c-7.112-2.924-13.479,2.605-18.317,2.516c-5.905-0.107-7.873-7.26-8.98-12.577c7.376-5.413,19.083-0.552,26.584,1.438
		c1.973,1.117,4.071-0.376,5.031-1.438c1.156-4.587-4.175-7.376-6.829-4.672c-4.013,2.802-7.282-3.38-12.209-4.668
		c-5.403-1.417-9.054,0.211-14.375,1.44c-3.677-1.467-5.117-7.098-5.026-11.133c0.659-1.633,3.744-2.763,6.106-2.888
		c4.771-0.243,14.891,2.475,16.522,4.322c5.166,8.402,12.103-6.358,2.157-4.677c-3.973,1.022-5.402-3.081-8.626-4.667
		c-5.484-2.713-13.021-2-17.959-0.363c-1.505-2.524-2.062-7.649-1.43-11.133c6.313-2.561,16.142-0.395,19.756,3.229
		c0.856,1.516,1.743,2.69,3.228,2.878c6.743,0.857,5.483-9.626-1.798-7.191c-3.913-1.058-6.932-5.452-11.133-6.098
		c-3.476-0.538-5.882,1.538-10.42,0.713c-0.637-1.829-0.502-5.694,0-7.546c4.188-3.9,10.851-0.619,14.729,1.794
		c4.098,7.641,12.376-3.793,3.229-5.026c-5.476-0.91-11.277-4.206-17.235-1.431c-1.251-1.354-0.628-4.232,0-5.757
		C227.915,5.913,236.94,7.446,239.286,11.271z"/>
	<path fill-rule="evenodd" clip-rule="evenodd" fill="#FFFFFF" d="M209.105,12.355c3.422-1.856,11.007-0.462,8.98,4.3
		c-7.492-0.167-13.961,3.112-18.325,7.191c-0.686,0.081-0.793-0.403-1.444-0.359c-2.609-2.044-5.51,0.395-5.748,2.162
		c-0.565,4.313,7.64,7.802,7.913,1.067c0.53-0.301,0.521-1.152,0.723-1.793c4.425-2.906,14.177-4.085,15.446,2.515
		c-9.159,0.31-12.894,6.031-17.611,10.784c-9.398,0.036-0.83,12.285,3.595,5.743c-0.081-1.125,0.238-2.636-0.363-3.232
		c1.332-2.561,6.595-5.667,10.066-5.027c2.197,0.409,6.64,4.507,6.824,5.744c0.637,4.313-7.344,5.345-10.78,9.344
		c-2.053,2.367-2.972,6.752-5.035,7.179c-9.967,1.915,4.233,14.2,4.319,3.232c1.694-8.295,17.639-9.967,15.813,1.085
		c-0.758,4.524-7.832,7.25-10.424,12.572c-1.533,3.138-1.157,5.394-2.515,8.627c-0.22,0.502-1.39,0.044-1.435,0.708
		c-12.367,1.26,4.69,14.384,3.586,2.878c0.439-2.407,2.911-3.372,4.673-5.381c2.793-3.192,4.802-8.116,10.057-7.905
		c1.542,3.646,5.874,7.322,6.112,11.134c0.35,5.811-9.645,13.541-7.909,22.643c-0.529,0.179-0.906,0.529-1.435,0.718
		c-10.008-1.516-1.57,13.062,3.232,5.38c0-0.717,0-1.435,0-2.147c-0.018-0.462-0.457-0.502-0.358-1.08
		c4.775-4.327,6.945-11.259,12.577-14.738c3.367,3.219,5.596,7.582,8.623,11.142c-0.654,9.398-4.099,16.03-5.026,25.15
		c-0.467,0.022-0.511,0.458-1.085,0.354c-10.905,0.798,2.779,14.389,3.959,3.955c4.69-5.107,6.151-13.487,11.133-18.321
		c3.201,4.528,9.354,6.609,11.497,11.497c3.349,7.645-4.86,17.522-1.799,28.015c-0.646,0.564-1.412,0.991-2.16,1.447
		c-7.538,2.704,2.766,11.981,5.748,5.381c0-0.946,0.139-2.04-0.355-2.515c1.005-4.722,5.273-7.937,6.825-12.927
		c0.951-3.017,0.036-5.852,2.874-7.905c3.587,3.103,12.604,6.583,13.653,14.725c0.147,1.089-0.292,3.139-0.354,4.318
		c-0.368,6.614,1.613,18.998-2.521,21.199c-3.747,1.045-2.291,5.99,0.355,7.192c2.273,0.098,4.344,0.009,5.394-1.081
		c0-1.121,0.848-2.35,0-3.233c3.093-6.492,6.838-12.335,7.913-20.84c8.241,2.488,15.312,10.16,15.797,20.84
		c0.188,3.978-1.225,8.918-0.714,13.285c0.373,3.228,1.942,5.816-0.712,7.905c-4.516,3.103,2.327,8.694,5.739,5.035
		c0.175-1.291,0.588-2.08,0-3.232c0.131-5.008,4.273-6.739,5.04-11.864c0.618-4.188-1.076-7.56,0.712-12.218
		c4.735,0.915,8.286,6.08,13.286,7.909c0.884,3.022,3.35,5.372,3.959,9.703c0.731,5.183-0.946,11.165-0.362,15.805
		c0.3,2.341,1.913,4.147,0,5.748c-2.839,6.197,8.357,7.035,6.469,1.081c-0.555-3.233,3.027-6.623,3.597-10.774
		c0.601-4.354-1.78-7.627,0-11.859c11.945,3.824,20.478,11.873,19.033,28.023c1.623,1.147,3.471-0.135,5.395,0.717
		c-0.704,1.857-2.3,1.785-3.95,1.081c-1.197,1.915-1.296,4.933-2.167,7.184c-2.716,5.618,7.704,8.201,6.839,1.439
		c-0.564-2.121,2.31-4.358,0.708-7.542c5.963-3.336-0.17-12.457,0.723-17.245c6.954,1.915,13.425,4.295,17.612,8.977
		c0.256,2.498,1.135,4.372,2.147,6.106c-0.785,5.789,0.072,13.228-2.511,17.245c-0.839,1.014-0.055,2.717,0.363,3.597
		c1.144,1.394,4.228,1.3,5.384,0c0-0.233,0-0.485,0-0.718c-0.124-4.089,0.961-8.757,1.086-13.658c1.013,1.157-0.883,3.969,0.35,5.39
		c1.869-0.78,1.13-6.044,0.727-7.905c3.577-0.905,1.03-6.196,1.435-9.339c6.479,1.295,11.972,2.848,15.084,7.183
		c3.496,4.878,2.448,15.917-0.354,21.199c-5.568,4.331,7.29,8.322,5.026,1.076c-1.879-2.914,3.205-6.443,3.954-10.769
		c1.04-6.004-2.317-8.587-2.879-13.658c2.803,0.744,5.799-0.027,8.627,0.726c5.538,1.461,9.752,9.524,8.977,15.083
		c-0.407,2.91-3.502,9.075-4.304,11.496c-0.511,3.264,1.763,3.739,3.596,4.664c1.193-0.471,2.241-1.108,2.875-2.148
		c0-0.596,0-1.202,0-1.797c-1.719-2.48,0.811-4.417,1.797-7.192c0.664-1.901,1.367-4.368,1.431-6.461
		c0.192-6.345-3.587-7.219-4.672-12.218c12.523-1.47,21.603,13.523,11.501,21.917c-7.085,5.093,9.204,8.349,3.95,0.722
		c0-0.479,0-0.956,0-1.439c1.385-1.605,3.066-2.915,4.309-4.667c1.95-8.111-2.273-12.048-4.309-17.245
		c6.488-2.372,9.255,4.426,12.931,7.184c0.027,0.502-0.166,0.784-0.358,1.071c-5.94,1.539,0.767,9.712,3.955,5.031
		c0.026-1.69,0.179-3.538-1.082-3.95c-1.349-3.452-3.703-7.788-4.312-10.774c2.592-2.959,8.704,0.838,7.556,3.955
		c-1.543,3.246,1.434,6.098-0.363,11.133c-1.479,4.161-5.914,7.457-7.192,12.218c-1.162,4.313-0.87,9.313-1.435,14.003
		c-3.273,27.283-14.3,55.459-24.781,73.654c-2.934,8.457-8.699,14.066-12.224,21.926c-11.004,14.214-22.154,27.593-35.207,39.87
		c-12.016,11.316-25.611,20.15-39.888,29.463c-14.67,7.438-31.041,15.67-47.778,21.195c-6.833,2.268-13.68,3.945-18.68,8.994
		c-1.654-2.305-1.981-5.928-6.47-5.399c-1.359-1.26,1.121-1.73,2.52-1.438c11.631,1.08-0.704-15.563-3.596-4.31
		c-0.74,0.099-0.104,1.579-0.723,1.812c-4.883,1.318-9.379-0.623-10.057-4.673c7.803,1.383,13.397-4.832,17.966-8.994
		c11.654,0.152-1.843-15.46-3.959-3.945c-1.981,3.156-6.224,4.076-10.057,5.395c-2.273-1.812-4.524-3.623-7.188-5.04
		c0.107-2.058,3.642-0.673,5.39-1.071c5.568-2.233,7.842-7.739,11.854-11.501c9.919-2.727-5.729-14.721-5.026-3.229
		c-2.591,5.925-10.631,8.152-15.796,3.229c-1.99-5.94,2.498-6.129,5.38-8.99c3.261-3.237,5.165-9.98,7.184-13.644
		c8.86,0.542,2.933-12.066-2.874-6.829c0,0.955,0,1.914,0,2.879c-0.175,0.354-0.484,1.022-0.722,1.421
		c-1.642,2.869-9.505,11.048-12.932,10.434c-1.86-0.331-5.438-6.847-5.389-8.269c0.071-1.812,1.395-1.918,2.161-3.232
		c2.837-4.896,5.309-11.855,6.106-17.599c0.488-0.117,0.691-0.516,1.43-0.367c10.322-0.789-1.524-13.295-3.95-4.31
		c-3.058,5.547-6.918,10.33-11.854,14.017c-2.444-0.919-3.367-3.351-5.026-5.744c-1.295-1.864-4.125-4.327-4.309-6.475
		c-0.364-4.156,5.837-8.887,6.098-14.374c0.108-2.045-1.062-3.152-0.713-5.749c0.638-0.322,1.049-0.856,1.798-1.076
		c10.076,0.09,0.219-13.084-3.232-5.385c-4.277,5.062-8.412,10.255-11.497,16.532c-5.147-3.479-8.415-8.834-12.577-13.3
		c-0.811-4.313,3.955-8.626,4.318-13.299c0.264-3.56-2.335-9.004,1.799-9.698c9.262-4.21-6.919-13.285-6.117-3.592
		c-2.963,5.542-6.698,10.304-8.268,17.245c-2.564-0.669-4.726-3.3-6.824-5.39c-1.99-1.991-5.076-4.134-6.116-6.111
		c-2.637-5.071,1.524-8.878,2.519-13.645c0.987-4.699-1.129-11.371,2.521-12.577c7.165-4.937-8.196-12.576-7.183-2.52
		c-0.166,2.623-2.529,3.466-3.595,5.39c-2.189,3.924-2.055,8.506-4.314,12.577c-2.932-0.126-4.556-2.87-6.461-4.673
		c-3.161-2.994-6.882-5.062-8.636-8.98c-0.712-6.677,2.265-13.312,2.167-19.033c-0.037-2.314-1.153-3.884,0.362-5.035
		c9.901-4.273-6.452-13.694-5.756-4.309c-3.121,5.488-6.197,11.034-6.108,19.764c-3.412-0.462-5.344-3.739-8.258-6.116
		c-2.354-1.928-6.78-3.905-8.26-6.47c-1.358-2.336-0.646-4.995-0.363-8.264c0.619-7.241-0.148-14.375,2.511-16.881
		c4.734-5.892-7.049-10.003-7.538-2.87c-0.439,5.448-4.892,8.47-5.394,13.644c-0.238,2.507,1.498,4.327-0.358,7.192
		c-9.224-5.363-22.482-8.277-19.397-24.795c0.062-1.13,1.812-0.574,1.793-1.803c-0.857-3.354,0.031-6.178,2.157-7.542
		c3.686-5.529-9.183-7.219-6.47-1.435c-0.045,2.744,2.435,2.157,1.798,3.95c-1.144,1.036-0.502-1.883-2.157-1.43
		c-5.703,1.981-4.479,11.909-4.672,18.312c-5.116-1.139-10.546-4.991-15.806-7.174c-5.183-6.528-1.533-17.961,2.157-23.72
		c7.308-5.326-9.457-11.522-7.551-2.52c1.022,3.408-2.874,5.87-3.583,10.43c-0.802,5.094,0.565,8.295,0.354,11.855
		c-6.214-1.695-12.384-3.425-16.168-7.546c-0.978-7.25-1.48-11.183,0-18.326c0.479-0.363,1.085-0.592,1.431-1.067
		c7.43-2.686-0.538-12.192-5.74-7.192c-0.309,0.888-0.466,1.924-0.363,3.229c-0.484,3.852-3.946,5.425-4.663,10.062
		c-0.987,6.224,1.202,9.609,1.785,13.295c-5.439,1.291-6.313-1.996-8.623-3.592c-1.385-0.955-3.614-1.264-5.026-2.511
		c-1.637-1.448-2.229-3.192-3.596-4.322c-1.434-6.331,0.346-10.326,3.596-13.648c10.896-2.17-3.727-15.541-5.748-5.027
		c-0.66,3.287-2.413,5.498-4.309,7.542c0.125,2.313-0.556,4.103-0.363,6.111c0.461,4.6,3.659,8.116,3.591,11.855
		c-5.538,3.13-9.752-2.125-13.286-4.313c-3.507-4.412-2.099-12.223,2.143-14.729c2.247,0.323,2.686-1.161,3.596-2.156
		c-0.081-2.197-1.139-3.408-1.798-5.026c-3.556-1.18-6.972,0.838-6.103,3.95c0,0.363,0,0.717,0,1.076
		c-5.748,5.107-5.367,15.612-1.435,21.907c-7.774,3.789-16.195-4.035-12.218-12.209c0.422-0.3,0.969-0.471,1.798-0.354
		c7.784-1.542-2.892-10.25-3.941-2.879c-0.484,2.027-2.439,3.157-2.883,5.39c-0.933,4.623,1.794,9.093,2.883,12.577
		c-3.623,3.174-10.833-1.637-7.914-6.102c1.955,0.035,1.852-1.982,2.874-2.884c-0.821-2.282-2.618-3.439-5.035-3.228
		c1.578-7.295,3.86-13.882,6.824-19.76c2.821-14.909,5.192-30.266,10.421-42.762c0-0.834,0-1.672,0-2.516
		c3.232-6.829,6.08-14.034,8.626-21.558c3.318-3.977,4.498-8.963,6.824-13.286c0.466-0.852,1.614-1.26,2.162-2.156
		c0.748-1.234,0.748-3.148,1.434-4.314c1.668-2.82,5.036-6.012,6.825-9.339c0.322-0.574,0.026-1.645,0.367-2.166
		c1.484-2.292,4.363-5.166,6.461-7.896c2.144-2.784,3.888-6.232,5.749-8.263C78.52,83.867,97.101,65.21,119.64,51.513
		c15.093-9.179,32.467-17.644,51.021-24.074c4.815-1.668,11.733-2.385,15.805-5.03c4.892-3.179,7.017-10.29,13.648-12.218
		C201.003,13.544,207.173,17.319,209.105,12.355z"/>
	<path fill-rule="evenodd" clip-rule="evenodd" fill="#010101" d="M241.07,16.301c9.147,1.233,0.869,12.667-3.229,5.026
		c0-0.233,0-0.475,0-0.713c1.313,0,2.637,0,3.959,0C242.814,19.063,239.464,18.373,241.07,16.301z"/>
	<path fill-rule="evenodd" clip-rule="evenodd" fill="#010101" d="M203.347,57.974c0.969,0.937-0.184,3.439,0.364,3.95
		c2.174,0.511,1.654-1.695,3.586-1.426c0.082,0.269,0.01,0.708,0.369,0.708C207.581,72.174,193.38,59.888,203.347,57.974z"/>
	<path fill-rule="evenodd" clip-rule="evenodd" fill="#010101" d="M274.134,89.947c-0.364,0-0.723,0-1.077,0
		c-0.31-1.336,1.197-1.681,0.354-2.502c-0.812-1.668-3.201,0.305-4.305-0.727c0-0.121,0-0.237,0-0.354
		C270.667,80.787,279.738,87.477,274.134,89.947z"/>
	<path fill-rule="evenodd" clip-rule="evenodd" fill="#010101" d="M224.188,108.286c0.721,1.363-1.587,2.367-1.798,3.945
		c0.403,0.076,0.561,0.399,0.722,0.718c2.328,0.408,1.771-2.054,4.309-1.431c0,0.713,0,1.431,0,2.147
		C222.619,121.348,214.181,106.771,224.188,108.286z"/>
	<path fill-rule="evenodd" clip-rule="evenodd" fill="#010101" d="M307.901,128.046c-1.524-0.049-0.359-2.771-0.723-3.959
		c-1.434-1.74-3.613,0.502-5.03-0.359c0.74-5.439,8.098-2.672,8.268,1.435C309.887,126.445,308.968,127.306,307.901,128.046z"/>
	<path fill-rule="evenodd" clip-rule="evenodd" fill="#010101" d="M264.781,158.938c0.581,1.095,0.448,2.911,1.094,3.947
		c2.264,0.587,2.51-2.323,4.299-1.081c0.494,0.475,0.355,1.569,0.355,2.515C267.546,170.92,257.243,161.643,264.781,158.938z"/>
	<path fill-rule="evenodd" clip-rule="evenodd" fill="#010101" d="M416.044,195.585c0.52,0.067,0.327,0.866,0.367,1.439
		C415.39,197.49,414.66,195.316,416.044,195.585z"/>
	<path fill-rule="evenodd" clip-rule="evenodd" fill="#D81921" d="M484.668,210.677c-2.538-2.865-4.003-6.779-7.191-8.981
		c0.96-1.143-0.776-2.874,1.081-3.233C483.001,199.961,486.485,204.077,484.668,210.677z"/>
	<path fill-rule="evenodd" clip-rule="evenodd" fill="#FFFFFF" d="M477.477,201.696c3.188,2.202,4.653,6.116,7.191,8.981
		c-0.237,3.959-2.344,6.036-3.596,8.977c-0.264,0.018-0.381,0.058-0.363,0.363c-0.237-4.327-0.704-14.2-5.395-16.9
		c0-0.349,0.301-0.417,0.364-0.704C475.993,201.875,476.584,201.638,477.477,201.696z"/>
	<path fill-rule="evenodd" clip-rule="evenodd" fill="#010101" d="M102.037,236.898c-2.538,0.144-1.345-3.448-3.242-3.945
		c-2.372-0.574-2.282,2.82-4.309,1.425C92.581,225.375,109.345,231.572,102.037,236.898z"/>
	<path fill-rule="evenodd" clip-rule="evenodd" fill="#FFFFFF" d="M123.59,246.233c0.749-0.134,0.946,0.247,1.439,0.368
		c0.05,0.646-0.444,0.753-0.363,1.435C123.406,247.884,123.142,247.283,123.59,246.233z"/>
	<path fill-rule="evenodd" clip-rule="evenodd" fill="#FFFFFF" d="M6.106,251.273c-0.291-0.677-0.592-1.309-0.722-2.156
		c0.287-0.085,0.421-0.3,0.359-0.722c1.376-0.081,1.797,1.977,1.085,2.878C6.582,251.273,6.344,251.273,6.106,251.273z"/>
	<path fill-rule="evenodd" clip-rule="evenodd" fill="#FFFFFF" d="M41.672,273.549c-1.981,5.466,7.963,7.354,9.353,2.52
		c-0.641-1.282,0.063-3.905-1.453-4.313c-1.516-3.668-3.121-8.254-2.143-12.586c1.807-8.08,11.416-8.138,18.67-4.663
		c-3.694,4.676-8.268,8.492-8.981,16.163c-0.144,1.83,1.26,2.107,1.798,3.238c0.018,0.498-0.166,0.79-0.354,1.076
		c-8.869,4.659,7.591,13.039,7.537,3.228c-0.094-6.752,0.152-14.904,5.395-18.312c4.332-2.834,12.756-1.785,16.168,1.798
		c-3.641,4.775-15.411,12.514-8.981,20.11c-0.116,0.484-0.506,0.695-0.363,1.439c-5.044,5.928,11.179,9.995,8.268,1.072
		c-0.009-0.699-0.978-0.448-0.721-1.425c2.784-5.372,4.398-11.891,9.703-14.734c7.855-0.556,13.155,1.444,17.612,4.313
		c-4.955,5.583-12.851,8.228-14.017,17.604c-4.407,4.717,4.408,11.34,7.179,5.748c5.475-6.425,8.796-17.294,20.486-16.164
		c5.03,0.479,8.241,4.757,12.568,6.82c-3.968,6.017-15.232,6.483-14.729,15.818c-0.363,0.336-0.722,0.699-1.076,1.081
		c-1.771,0.381-2,2.291-2.874,3.582c1.166,4.22,7.345,6.255,10.057,2.156c0-0.954,0.144-2.058-0.349-2.52c0-0.362,0-0.713,0-1.071
		c6.681-2.147,10.205-10.151,18.679-9.703c5.695,0.301,9.474,3.713,12.568,6.475c1.763,1.552,4.197,2.86,4.672,5.022
		c-6.021,4.519-15.222,5.855-20.123,11.496c-10.129,1.945,4.345,14.563,5.394,4.309c0.403-0.071,0.556-0.398,0.721-0.718
		c8.121,2.65,12.941-3.676,19.034-3.945c2.345-0.112,3.878,1.493,6.479,2.147c5.13,1.31,5.296,0.906,8.618,3.955
		c3.036,2.788,5.874,5.762,1.076,8.259c-5.56,2.915-16.572,1.005-20.836,5.035c-6.066,2.561,2.372,11.241,6.098,6.103
		c3.192-2.735,5.439,0.754,9.353,0.718c5.349-0.045,10.659-4.251,16.16-3.229c2.193,0.395,10.68,6.17,10.788,8.259
		c0.238,4.86-16.545,7.99-20.841,6.475c-10.388-0.444-1.91,14.048,3.229,7.184c2.363-1.812,4.775,1.91,7.192,2.152
		c2.498,0.259,5.317-0.808,7.546-1.431c3.394-0.955,7.564-3.538,10.419-3.592c1.351-0.035,3.562,1.041,5.385,1.789
		c5.095,2.094,8.727,4.748,10.412,9.357c-5.282,5.229-18.169,5.825-25.504,3.215c-1.278-0.641-2.923-0.246-3.95,0.363
		c-1.099,0.955-1.161,2.915-1.08,5.031c1.089,1.865,6.792,2.923,7.545,0c0.713-0.009,0.458-0.973,1.435-0.718
		c3.798,2.313,7.591,4.582,13.294,4.677c4.335,0.068,8.223-2.819,11.142-2.874c1.964-0.054,6.39,1.838,8.25,3.229
		c1.663,1.218,4.785,4.792,4.682,6.823c-0.08,1.623-3.019,3.802-4.682,4.31c-7.447,2.304-16.607-1.96-21.907-3.229
		c-2.888-0.014-3.834,1.901-5.023,3.597c0.777,3.408,6.99,6.34,8.618,1.798c0.399-0.081,0.556-0.404,0.717-0.731
		c5.879,3.654,13.214,7.273,21.567,5.395c1.87-0.426,3.237-1.649,5.019-1.448c2.811,0.345,4.114,3.241,5.393,5.403
		c0.946,1.622,1.905,3.416,2.152,5.03c-5.201,4.636-17.805,1.812-23.352-0.718c-8.178-6.376-9.846,9.175,0.354,5.744
		c5.067,5.532,18.757,7.017,25.872,2.523c1.79,3.104,3.65,6.157,3.95,10.776c-3.968,3.641-12.818,1.689-16.881-0.731
		c-1.597-3.991-7.591-2.297-7.909,1.085c-0.283,3.103,3.035,5.722,6.824,4.671c2.134-0.807,4.291,1.861,6.824,2.517
		c4.008,1.035,9.51-0.036,12.223,0c1.703,1.27,1.905,4.649,1.798,7.178c-5.367,1.409-12.577,0.081-16.174-2.515
		c-6.222-6.264-11.36,7.564-1.788,6.474c5.147,1.938,12.676,2.323,18.315,1.798c0.539,2.387,0.628,5.005-0.354,6.825
		c-3.699,0.825-8.788,0.26-11.501-1.067c-1.225-3.915-7.958-3.587-8.259,0.704c-0.17,2.408,1.743,2.821,2.512,5.026
		c-8.059-0.422-2.558,11.362,2.519,6.475c2.663,1.112,9.892,0.588,13.649,1.793c0.282,1.247-0.399,1.516-0.718,2.157
		c-0.714,0.372-1.543,0.619-1.799,1.439c-10.603,3.641-20.826-4.592-29.458-6.106c-6.56-1.148-13.326-0.278-19.401-0.728
		c-23.71-1.694-47.654-9.316-66.104-16.519c-16.455-6.429-31.812-15.308-45.636-25.14c-13.308-9.492-24.822-19.33-35.919-31.274
		c-12.483-13.425-23.491-28.427-32.342-45.259c-7.914-15.048-14.886-31.136-19.401-49.223c-0.31-1.211-0.036-2.417-0.354-3.597
		c-0.642-2.358-3.991-6.622-3.596-9.703c0.229-1.767,4.408-4.044,0.718-5.744c-7.564-3.08-13.165-22.101-1.794-24.073
		c0.7,4.421-2.13,8.819-0.712,13.648c0.874,3.031,5.492,3.31,5.017,6.829c-2.408,4.749,8.331,5.47,6.116,0.363
		c-1.632-6.837-10.084-10.268-7.192-19.406c1.004-3.147,4.708-5.345,8.99-5.031c0.081,1.833-0.986,5.43-2.165,7.192
		c-0.538,6.277,1.645,9.855,5.04,12.209c0.108,0.825-0.063,1.386-0.368,1.798c-3.52,5.246,9.775,8.013,7.192,0.722
		c-2.955-5.426-8.066-15.774-2.52-21.921c0.493-0.538,1.829-0.623,2.156-1.435c3.229,0.417,6.659-0.69,8.981,0
		c-2.255,4.583-7.259,9.568-5.031,16.519C39.143,270.002,42.169,270.374,41.672,273.549z"/>
	<path fill-rule="evenodd" clip-rule="evenodd" fill="#FFFFFF" d="M121.438,252.708c0.574-0.103,0.61,0.34,1.077,0.359
		c0.201,1.641-0.633,2.237-0.368,3.955C121.236,256.269,121.457,254.367,121.438,252.708z"/>
	<path fill-rule="evenodd" clip-rule="evenodd" fill="#010101" d="M155.923,264.568c-1.718-0.677-1.067-3.717-3.588-3.6
		c-1.753-0.067-1.878,1.484-3.596,1.443c-0.081-0.278-0.009-0.713-0.354-0.713C148.875,254.564,160.658,258.676,155.923,264.568z"/>
	<path fill-rule="evenodd" clip-rule="evenodd" fill="#FFFFFF" d="M121.438,260.618c0.547-0.65,0.336,2.511,0.708,3.228
		C120.699,263.989,121.757,261.604,121.438,260.618z"/>
	<path fill-rule="evenodd" clip-rule="evenodd" fill="#010101" d="M209.818,309.118c-0.457,0.015-0.502,0.462-1.077,0.354
		c-0.614-0.865,0.884-2.035,0.364-3.945c-0.089-1-1.332-0.821-1.808-1.436c-2.071,0.314-2.179,2.601-4.663,2.507
		C201.622,296.542,216.983,304.182,209.818,309.118z"/>
	<path fill-rule="evenodd" clip-rule="evenodd" fill="#010101" d="M123.59,303.38c1.605,0.416,0.027,4.039,1.076,5.013
		c0.494-0.009,0.793,0.179,1.076,0.363c2.282,0.009,2.318-2.233,4.681-2.157c0.493,0.462,0.349,1.565,0.349,2.52
		c-2.712,4.099-8.891,2.063-10.057-2.156C121.59,305.671,121.819,303.761,123.59,303.38z"/>
	<path fill-rule="evenodd" clip-rule="evenodd" fill="#010101" d="M166.707,337.859c0.358,0,0.721,0,1.071,0
		c0.283,1.839-0.502,2.619-0.35,4.31c0.082,0.511,0.584,0.614,0.714,1.08c2.206,0.614,3.259-1.341,4.663-0.363
		c0,0.363,0,0.727,0,1.076C169.078,349.101,160.64,340.42,166.707,337.859z"/>
	<path fill-rule="evenodd" clip-rule="evenodd" fill="#010101" d="M188.264,356.185c0.197,2.206-2.573,3.04-1.798,4.677
		c-0.166,2.654,4.806,0.22,5.026,2.507C186.354,370.232,177.876,355.74,188.264,356.185z"/>
	<path fill-rule="evenodd" clip-rule="evenodd" fill="#010101" d="M283.468,403.61c-2.134-2.373,1.902-3.502,2.157-5.744
		c-2.046,0.066-3.126,2.744-5.031,1.794c0-0.965,0-1.924,0-2.879C286.401,391.544,292.329,404.152,283.468,403.61z"/>
	<path fill-rule="evenodd" clip-rule="evenodd" fill="#010101" d="M253.646,442.045c0.148,0.515,0.439,0.614,0,1.08
		c-0.721,0.376-2.937-0.233-4.671,0c-0.758,2.175,3.367,2.322,3.232,5.031c-0.21,0.022-0.422,0.059-0.35,0.362
		C242.286,449.609,247.424,435.781,253.646,442.045z"/>
	<path fill-rule="evenodd" clip-rule="evenodd" fill="#FFFFFF" d="M256.167,464.684c-0.448-0.754-1.04-1.354-1.798-1.799
		c0.336-1.106,1.99-0.883,2.521-1.793c3.219-1.753,8.236,1.735,12.563,0c0.556,1.301,0.617,2.264,0.367,3.592
		C267.228,466.835,258.292,468.441,256.167,464.684z"/>
	<path fill-rule="evenodd" clip-rule="evenodd" fill="#FFFFFF" d="M288.5,460.737c-0.166,1.032-1.269,1.116-1.076,2.512
		c-2.265,1.363-7.869,1.622-9.35-0.709c4.166-0.055,6.619-1.785,10.426-2.165C288.5,460.486,288.5,460.621,288.5,460.737z"/>
	<path fill-rule="evenodd" clip-rule="evenodd" fill="#FFFFFF" d="M289.217,466.835c0.729,0.35,1.416,0.74,2.156,1.09
		c-3.404,2.552-11.362,4.686-15.451,1.436C280.232,468.396,284.958,467.845,289.217,466.835z"/>
	<path fill-rule="evenodd" clip-rule="evenodd" fill="#D81921" d="M53.89,225.044c-3.25,3.322-5.03,7.317-3.596,13.648
		c1.368,1.13,1.959,2.874,3.596,4.322c1.412,1.247,3.641,1.556,5.026,2.511c2.309,1.596,3.184,4.882,8.623,3.592
		c-0.583-3.686-2.771-7.071-1.785-13.295c0.717-4.636,4.179-6.21,4.663-10.062c1.511,1.081,1.758-1.686,3.959-1.081
		c0,0.35,0.426,0.283,0.713,0.364c1.731,1.094-0.834,4.291,1.431,4.681c-0.346,0.475-0.951,0.704-1.431,1.067
		c-1.48,7.143-0.978,11.075,0,18.326c3.785,4.121,9.954,5.851,16.168,7.546c0.211-3.56-1.157-6.761-0.354-11.855
		c0.709-4.56,4.605-7.022,3.583-10.43c2.027,1.395,1.938-2,4.309-1.425c1.897,0.497,0.705,4.088,3.242,3.945
		c-3.69,5.758-7.34,17.191-2.157,23.72c5.26,2.184,10.689,6.036,15.806,7.174c0.193-6.403-1.031-16.331,4.672-18.312
		c1.655-0.453,1.014,2.466,2.157,1.43c0.636-1.793-1.843-1.206-1.798-3.95c2.081-3.273,5.385-1.757,6.47,1.435
		c-2.125,1.363-3.014,4.188-2.157,7.542c0.018,1.229-1.731,0.672-1.793,1.803c-3.085,16.519,10.173,19.433,19.397,24.795
		c1.856-2.865,0.121-4.686,0.358-7.192c0.502-5.174,4.955-8.196,5.394-13.644c0.346,0,0.274,0.435,0.354,0.713
		c1.718,0.041,1.843-1.511,3.596-1.443c2.521-0.117,1.87,2.923,3.588,3.6c-2.659,2.506-1.893,9.64-2.511,16.881
		c-0.283,3.269-0.995,5.927,0.363,8.264c1.48,2.565,5.906,4.542,8.26,6.47c2.915,2.377,4.847,5.654,8.258,6.116
		c-0.089-8.73,2.987-14.276,6.108-19.764c2.529,0.484,1.843-2.233,4.68-1.444c1.533,1.47-0.175,4.484,1.076,5.753
		c-1.516,1.151-0.399,2.721-0.362,5.035c0.098,5.722-2.879,12.356-2.167,19.033c1.753,3.919,5.475,5.986,8.636,8.98
		c1.906,1.803,3.529,4.547,6.461,4.673c2.259-4.071,2.125-8.653,4.314-12.577c1.066-1.924,3.429-2.767,3.595-5.39
		c2.484,0.094,2.592-2.192,4.663-2.507c0.476,0.614,1.718,0.436,1.808,1.436c0.52,1.91-0.978,3.08-0.364,3.945
		c0.574,0.107,0.62-0.34,1.077-0.354c-3.649,1.206-1.534,7.878-2.521,12.577c-0.995,4.767-5.156,8.573-2.519,13.645
		c1.04,1.978,4.125,4.12,6.116,6.111c2.098,2.09,4.26,4.721,6.824,5.39c1.569-6.941,5.305-11.703,8.268-17.245
		c2.566,0.162,4.045-3.345,6.462-1.08c0.385,2.004-2.265,3.385-0.345,4.672c-4.134,0.694-1.535,6.139-1.799,9.698
		c-0.363,4.673-5.129,8.985-4.318,13.299c4.162,4.466,7.43,9.82,12.577,13.3c3.085-6.277,7.22-11.471,11.497-16.532
		c0.291,2.574,2.839-1.215,4.309,0.354c1.367,2.288-2.592,2.593-1.076,5.031c-0.749,0.22-1.16,0.754-1.798,1.076
		c-0.35,2.597,0.821,3.704,0.713,5.749c-0.261,5.487-6.462,10.218-6.098,14.374c0.184,2.147,3.014,4.61,4.309,6.475
		c1.659,2.394,2.582,4.825,5.026,5.744c4.937-3.687,8.797-8.47,11.854-14.017c1.323,1.856,3.282-1.618,5.036-0.363
		c-0.211,1.602-1.201,2.395-2.162,3.229c-0.309,1.166,0.938,0.758,1.076,1.444c-0.738-0.148-0.941,0.25-1.43,0.367
		c-0.798,5.743-3.27,12.702-6.106,17.599c-0.767,1.314-2.09,1.421-2.161,3.232c-0.05,1.422,3.528,7.938,5.389,8.269
		c3.427,0.614,11.29-7.564,12.932-10.434c0.237-0.398,0.547-1.067,0.722-1.421c1.905,0.95,2.985-1.728,5.031-1.794
		c-0.255,2.242-4.291,3.371-2.157,5.744c-2.019,3.663-3.923,10.406-7.184,13.644c-2.882,2.861-7.37,3.05-5.38,8.99
		c5.165,4.923,13.205,2.695,15.796-3.229c1.722,0.857,2.31-2.147,4.673-1.797c0.928,1.808-1.233,3.699,0.354,5.026
		c-4.013,3.762-6.286,9.268-11.854,11.501c-1.748,0.398-5.282-0.986-5.39,1.071c2.663,1.417,4.914,3.229,7.188,5.04
		c3.833-1.318,8.075-2.238,10.057-5.395c1.162,0.915,3.241-1.869,5.04-0.363c0.503,2.184-2.166,2.695-1.081,4.309
		c-4.568,4.162-10.163,10.377-17.966,8.994c0.678,4.05,5.174,5.991,10.057,4.673c0.619-0.232-0.018-1.713,0.723-1.812
		c0.443,2.358,3.596,0.354,5.026,0.368c0.466,2.147-2.848,1.99-1.431,3.941c-1.398-0.292-3.879,0.179-2.52,1.438
		c-0.266,0.336-0.659,0.548-1.076,0.727c0-0.116,0-0.251,0-0.362c-3.807,0.38-6.26,2.11-10.426,2.165
		c1.48,2.331,7.085,2.072,9.35,0.709c0.999,1.224,2.47-0.009,3.583,0.717c1.196,1.551-2.188,0.991-1.789,2.869
		c-4.26,1.01-8.985,1.561-13.295,2.525c-3.789-2.399-5.044,2.134-7.9,2.869c0.318-0.642,1-0.91,0.718-2.157
		c-3.758-1.205-10.986-0.681-13.649-1.793c0.117-1.552-1.99-0.883-1.798-2.524c1.412,0.104,2.498-0.135,2.874-1.071
		c2.126,3.758,11.062,2.151,13.653,0c0.25-1.328,0.188-2.291-0.367-3.592c-4.327,1.735-9.345-1.753-12.563,0
		c0.663-3.304-3.763-1.507-3.597-4.313c1.211-1.215,4.224,1.211,5.026-0.704c2.713,1.327,7.802,1.893,11.501,1.067
		c0.981-1.82,0.893-4.438,0.354-6.825c-5.64,0.525-13.168,0.14-18.315-1.798c-0.072-0.304,0.14-0.34,0.35-0.362
		c0.135-2.709-3.99-2.856-3.232-5.031c1.734-0.233,3.95,0.376,4.671,0c0.439-0.466,0.148-0.565,0-1.08
		c3.597,2.596,10.807,3.924,16.174,2.515c0.107-2.528-0.095-5.908-1.798-7.178c-2.713-0.036-8.215,1.035-12.223,0
		c-2.533-0.655-4.69-3.323-6.824-2.517c-0.301-2.923-4.014-2.452-4.31-5.389c1.637-1.622,4.363,1.856,5.395-0.367
		c4.062,2.421,12.913,4.372,16.881,0.731c-0.3-4.619-2.16-7.673-3.95-10.776c-7.115,4.493-20.805,3.009-25.872-2.523
		c0.123-0.839-0.053-1.376-0.354-1.794c-1.013-0.672-3.358,0.01-4.317-0.722c0.31-1.008-0.502-0.941-0.345-1.797
		c0.882-1.136,3.43-0.634,4.662-1.432c5.547,2.529,18.15,5.354,23.352,0.718c-0.247-1.614-1.206-3.408-2.152-5.03
		c-1.278-2.162-2.582-5.059-5.393-5.403c-1.781-0.201-3.148,1.022-5.019,1.448c-8.354,1.879-15.688-1.74-21.567-5.395
		c-0.161,0.327-0.318,0.65-0.717,0.731c0.135-2.767-3.38-0.833-5.03-1.085c-1.461-2.147,2.237-2.879,1.435-4.31
		c5.3,1.27,14.46,5.533,21.907,3.229c1.663-0.508,4.602-2.687,4.682-4.31c0.104-2.031-3.019-5.605-4.682-6.823
		c-1.86-1.392-6.286-3.283-8.25-3.229c-2.919,0.055-6.807,2.942-11.142,2.874c-5.704-0.095-9.497-2.363-13.294-4.677
		c-0.977-0.255-0.722,0.709-1.435,0.718c-0.242-2.524-3.704,0.35-5.027-1.076c0-0.476,0-0.955,0-1.439
		c-0.116-1.995,3.889-0.682,2.512-2.879c7.335,2.61,20.222,2.014,25.504-3.215c-1.686-4.609-5.317-7.264-10.412-9.357
		c-1.824-0.748-4.034-1.824-5.385-1.789c-2.855,0.054-7.025,2.637-10.419,3.592c-2.229,0.623-5.049,1.689-7.546,1.431
		c-2.417-0.242-4.829-3.964-7.192-2.152c-0.22-2.287-5.192,0.147-5.026-2.507c-0.775-1.637,1.995-2.471,1.798-4.677
		c4.296,1.516,21.079-1.614,20.841-6.475c-0.108-2.089-8.595-7.864-10.788-8.259c-5.501-1.022-10.811,3.184-16.16,3.229
		c-3.914,0.036-6.161-3.453-9.353-0.718c0-0.35,0-0.713,0-1.076c-1.404-0.978-2.457,0.978-4.663,0.363
		c-0.13-0.466-0.632-0.569-0.714-1.08c-0.152-1.69,0.633-2.471,0.35-4.31c-0.35,0-0.713,0-1.071,0
		c4.264-4.03,15.276-2.12,20.836-5.035c4.797-2.497,1.96-5.471-1.076-8.259c-3.322-3.049-3.488-2.646-8.618-3.955
		c-2.601-0.654-4.134-2.26-6.479-2.147c-6.093,0.27-10.913,6.596-19.034,3.945c-0.166,0.319-0.318,0.646-0.721,0.718
		c-1.341-0.986-2.928,2.435-5.026,0.722c-1.461-1.734,1.524-3.905-0.368-5.03c4.9-5.641,14.102-6.978,20.123-11.496
		c-0.475-2.162-2.909-3.471-4.672-5.022c-3.094-2.762-6.873-6.174-12.568-6.475c-8.475-0.448-11.999,7.556-18.679,9.703
		c0,0.358,0,0.709,0,1.071c-2.363-0.076-2.399,2.166-4.681,2.157c-0.283-0.185-0.583-0.372-1.076-0.363
		c-1.049-0.974,0.529-4.597-1.076-5.013c0.354-0.382,0.713-0.745,1.076-1.081c-0.502-9.335,10.761-9.801,14.729-15.818
		c-4.327-2.062-7.538-6.34-12.568-6.82c-11.69-1.13-15.012,9.738-20.486,16.164c-0.283-2.246-1.314,0.081-2.866-0.362
		c-2.291-0.705-1.287-7.717-4.313-5.386c1.166-9.376,9.062-12.021,14.017-17.604c-4.457-2.87-9.757-4.869-17.612-4.313
		c-5.304,2.843-6.919,9.363-9.703,14.734c-0.256,0.977,0.712,0.726,0.721,1.425c-2.681,0.237-2.219,2.812-4.309,2.525
		c-2.26-0.31-0.839-3.52-3.959-3.597c-0.143-0.744,0.247-0.955,0.363-1.439c-6.429-7.596,5.341-15.335,8.981-20.11
		c-3.412-3.583-11.837-4.632-16.168-1.798c-5.242,3.407-5.489,11.559-5.395,18.312c-2,0.04-1.69,2.376-3.941,2.166
		c-1.972-1.035-1.04-4.954-3.596-5.394c0.188-0.287,0.372-0.579,0.354-1.076c-0.538-1.13-1.942-1.408-1.798-3.238
		c0.713-7.671,5.287-11.487,8.981-16.163c-7.254-3.476-16.863-3.417-18.67,4.663c-0.978,4.332,0.627,8.918,2.143,12.586
		c-2.107,0.502-1.421,3.829-3.229,4.676c-2.995,0.642-2.008-4.362-4.672-2.883c0.498-3.175-2.529-3.546-3.233-5.757
		c-2.228-6.95,2.776-11.936,5.031-16.519c-2.323-0.69-5.753,0.417-8.981,0c-0.327,0.812-1.664,0.897-2.156,1.435
		c-5.547,6.147-0.436,16.496,2.52,21.921c-2.233-0.202-1.516,2.551-3.959,2.152c-0.875-0.686-0.978-2.139-1.435-3.233
		c-0.83-0.117-1.376,0.063-1.798,0.359c0.305-0.413,0.476-0.973,0.368-1.798c-3.395-2.354-5.578-5.932-5.04-12.209
		c1.179-1.762,2.246-5.358,2.165-7.192c-4.282-0.314-7.985,1.883-8.99,5.031c-2.892,9.138,5.56,12.568,7.192,19.406
		c-1.646-1.973-1.763,1.161-2.884,1.793c-1.735,0.037-1.331-3.506-3.232-2.156c0.475-3.52-4.143-3.798-5.017-6.829
		c-1.417-4.829,1.413-9.228,0.712-13.648c-11.371,1.973-5.771,20.993,1.794,24.073c-0.78,0.893-0.31,3.053-1.794,3.233
		c-0.587-0.861-0.578-2.296-1.08-3.233c-5.381-0.094-7.766-6.169-7.188-12.585c0.583-6.457,5.363-12.394,1.439-16.164
		c0-0.112,0-0.233,0-0.354c0.237,0,0.476,0,0.722,0c0.712-0.901,0.292-2.959-1.085-2.878c0.062,0.422-0.072,0.637-0.359,0.722
		c-0.233-2.103-1.632-5.833,0-7.542c0.95-0.848,1.363,1.027,2.52,1.081c-2.919,4.465,4.291,9.276,7.914,6.102
		c-1.089-3.484-3.816-7.955-2.883-12.577c0.444-2.233,2.399-3.363,2.883-5.39c0.435,1.004,1.457,1.188,2.506,0.727
		c-0.484,1.668,0.807,1.596,1.435,2.152c-0.829-0.117-1.376,0.054-1.798,0.354c-3.977,8.174,4.444,15.998,12.218,12.209
		c-3.932-6.295-4.313-16.8,1.435-21.907c0-0.359,0-0.713,0-1.076c2.062-0.009,2.39-2.735,4.672-1.435
		c0.436,1.937-2.336,3.448-0.368,4.667c-4.242,2.506-5.65,10.317-2.143,14.729c3.533,2.188,7.748,7.443,13.286,4.313
		c0.067-3.739-3.13-7.255-3.591-11.855c-0.193-2.009,0.488-3.798,0.363-6.111c1.896-2.044,3.649-4.255,4.309-7.542
		c1.578,0.847,4.013-1.932,5.748,0C54.975,221.752,52.146,223.729,53.89,225.044z M124.667,248.036
		c-0.081-0.682,0.413-0.789,0.363-1.435c-0.493-0.121-0.69-0.502-1.439-0.368C123.142,247.283,123.406,247.884,124.667,248.036z
		 M122.146,257.022c-0.265-1.717,0.569-2.314,0.368-3.955c-0.466-0.019-0.502-0.462-1.077-0.359
		C121.457,254.367,121.236,256.269,122.146,257.022z M122.146,263.846c-0.372-0.717-0.161-3.878-0.708-3.228
		C121.757,261.604,120.699,263.989,122.146,263.846z"/>
	<path fill-rule="evenodd" clip-rule="evenodd" fill="#D81921" d="M240.352,4.801c-0.044,0.43-0.649,0.304-1.066,0.363
		c-0.404,1.708,1.166,1.47,2.515,1.435c-1.165,2.229,2.547,1.753,1.78,4.672c-1.905,1.753-3.605-2.793-4.295,0
		c-2.346-3.825-11.371-5.358-15.451-2.157c-0.628,1.524-1.251,4.403,0,5.757c5.958-2.775,11.76,0.521,17.235,1.431
		c-1.605,2.071,1.744,2.762,0.73,4.313c-1.322,0-2.646,0-3.959,0c0,0.238,0,0.479,0,0.713c-3.878-2.413-10.541-5.694-14.729-1.794
		c-0.502,1.852-0.637,5.717,0,7.546c4.538,0.825,6.945-1.251,10.42-0.713c4.201,0.646,7.22,5.04,11.133,6.098
		c-0.106,0.847-0.699,1.488,0,2.161c1.135,0.718,2.932-0.569,3.955,0.718c-0.748,3.022-3.991-0.471-5.385,1.435
		c-3.614-3.623-13.443-5.789-19.756-3.229c-0.632,3.484-0.075,8.609,1.43,11.133c4.938-1.637,12.475-2.35,17.959,0.363
		c3.224,1.587,4.653,5.689,8.626,4.667c-0.148,2.062,2.909,0.923,2.874,2.874c-0.623,3.21-3.649-0.036-5.031,1.803
		c-1.632-1.848-11.751-4.565-16.522-4.322c-2.362,0.125-5.448,1.255-6.106,2.888c-0.09,4.035,1.35,9.667,5.026,11.133
		c5.321-1.229,8.972-2.856,14.375-1.44c4.927,1.288,8.196,7.47,12.209,4.668c0.238,1.681,3.331,0.501,3.596,2.156
		c0.39,2.193-3.305,1.803-1.798,3.955c-7.501-1.991-19.208-6.851-26.584-1.438c1.107,5.317,3.075,12.469,8.98,12.577
		c4.839,0.089,11.205-5.439,18.317-2.516c2.819,1.161,5.967,7.583,8.276,4.313c0,0.117,0,0.233,0,0.354
		c1.104,1.032,3.492-0.941,4.305,0.727c0.843,0.821-0.664,1.166-0.354,2.502c0.354,0,0.713,0,1.077,0
		c-7.628,4.143-22.667-3.425-28.756,4.322c1.92,3.538,6.883,10.833,12.218,11.128c4.257,0.247,8.609-3.327,13.653-3.219
		c1.472,0.018,3.669,0.17,5.386,0.717c3.466,1.081,6.232,5.233,8.632,1.794c0.139,1.892,2.985,1.089,3.95,2.152
		c0.775,2.395-2.399,3.238-0.364,4.677c-1.981-0.708-3.493,0.224-6.106,0.354c-5.73,0.278-20.41-3.107-20.478,3.587
		c-0.018,2.125,4.438,5.237,6.115,6.833c2.619,2.484,5.439,5.649,10.049,5.035c3.273-0.448,6.103-3.084,9.708-3.6
		c5.191-0.744,8.899,0.745,12.931,1.803c0.332-0.637,0.869-1.058,1.076-1.803c1.417,0.861,3.597-1.381,5.03,0.359
		c0.363,1.188-0.802,3.91,0.723,3.959c-6.345,4.547-18.675,3.125-22.998,9.689c4.754,3.713,8.744,11.766,16.169,10.784
		c2.704-0.354,5.322-3.076,8.618-3.95c2.287-0.614,5.434-1.372,7.555-1.439c2.61-0.085,5.412,2.148,6.102-1.08
		c3.278-0.74,6.005,0.516,7.193,3.586c-2.784,2.798-3.959,5.372-8.632,7.201c-3.313,1.292-12.913,1.718-13.298,5.022
		c-0.181,1.614,6.652,7.048,7.913,7.91c1.596,1.094,5.219,3.219,7.183,3.232c5.847,0.023,12.527-9.582,21.194-8.631
		c0.775-0.901,1.48-1.874,2.158-2.878c-0.104,2.021,3.331,0.52,4.312,1.447c0.941,0.615,0.148,2.965,1.798,2.866
		c-1.668,1.214-2.215,3.542-2.883,5.748c-4.938,4.287-12.447,6-16.527,11.147c5.569,3.417,10.542,11.218,19.048,7.909
		c1.843-0.722,5.299-4.811,8.63-7.192c2.099-1.511,4.381-2.139,5.023-5.026c1.004,0.955,1.779-0.345,2.873-0.368
		c1.431,0.727,1.87,2.448,2.874,3.596c-0.301,0.287-0.21,0.986-0.723,1.081c2.503,9.47-6.259,12.864-10.777,17.599
		c2.868,1.833,7.165,5.744,11.146,6.47c10.729,1.959,13.949-8.568,16.522-16.527c1.47,1.117,2.767-0.417,3.955-0.717
		c1.789,0.363,1.438,2.87,3.236,3.228c-0.528,0.565-0.758,1.408-1.085,2.162c5.035,8.887-5.357,13.46-7.904,19.405
		c8.196,5.09,21.764,4.385,22.996-6.106c0.301-2.547-0.52-4.556-0.362-7.188c2.035-0.726,3.112-2.403,5.748-2.524
		c0.52,0.206,0.884,0.564,1.085,1.085c-1.385-0.269-0.654,1.905,0.367,1.439c-0.411,3.134,1.834,4.367,2.145,6.829
		c0.793,6.273-4.82,10.618-6.824,15.083c6.286,4.784,16.881,3.704,19.396-3.596c1.736-4.986-2.116-10.546-2.151-14.725
		c0.896,2.874,2.663-1.583,4.672-1.076c1.869,3.703,5.687,6.03,6.106,10.42c0.583,6.156-4.717,10.03-6.828,14.72
		c5.905,1.915,12.119,1.843,15.097-2.511c3.211-4.703,0.071-12.492-2.166-17.24c2.099,0.377,3.287-2.591,5.762-0.367
		c0.408-0.049,0.301-0.65,0.346-1.071c0.73,3.829,4.497,6.398,4.672,10.783c0.193,4.609-2.52,8.089-4.309,11.855
		c2.211,0.789,5.834,0.147,8.627,0.354c7.9-5.08,1.184-15.608-1.09-22.629c1.779,0.319,1.372-1.516,2.882-1.439
		c1.498-0.103,1.082,2.973,2.87,1.439c-0.995,2.201,2.063,3.246,3.238,5.376c2.682,4.843,1.103,9.429,0,15.451
		c3.232,0.633,6.276-0.672,7.183-2.865c3-7.214-3.341-15.128-5.748-19.047c0.919-0.292,0.928-1.48,1.439-2.152
		c1.398,0.524,1.569,2.26,3.95,1.797c-0.063,0.287-0.364,0.354-0.364,0.704c4.69,2.7,5.157,12.573,5.395,16.9
		c-0.018-0.305,0.1-0.345,0.363-0.363c-0.476,4.169,5.305,8.331,2.865,13.299c-0.108,0-0.237,0-0.345,0
		c1.148-3.116-4.964-6.914-7.556-3.955c0.609,2.986,2.964,7.322,4.312,10.774c-0.784-0.062-1.138,0.3-1.074,1.081
		c-1.202-0.112-0.585-2.054-1.799-2.162c0.192-0.287,0.386-0.569,0.358-1.071c-3.676-2.758-6.442-9.555-12.931-7.184
		c2.035,5.197,6.259,9.134,4.309,17.245c-1.242,1.753-2.924,3.062-4.309,4.667c0,0.484,0,0.96,0,1.439
		c-1.386,0.399-0.866,2.726-1.444,3.95c-3.166,0-0.026-4.376-2.506-4.672c10.102-8.394,1.022-23.387-11.501-21.917
		c1.085,5,4.864,5.874,4.672,12.218c-0.063,2.094-0.767,4.56-1.431,6.461c-0.986,2.775-3.516,4.712-1.797,7.192
		c-1.808-1.26-2.759,0.941-3.243,2.147c-1.184-0.722-1.157-2.677-1.798-3.946c-0.731,0.107-0.699,0.973-1.43,1.081
		c0.802-2.421,3.896-8.586,4.304-11.496c0.775-5.56-3.438-13.622-8.977-15.083c-2.828-0.753-5.824,0.018-8.627-0.726
		c0.562,5.071,3.919,7.653,2.879,13.658c-0.749,4.326-5.833,7.855-3.954,10.769c-1.73-0.062-1.808,1.552-3.95,1.082
		c-0.283-0.798-0.211-1.942-1.076-2.157c2.803-5.282,3.851-16.321,0.354-21.199c-3.112-4.335-8.604-5.888-15.084-7.183
		c-0.404,3.144,2.143,8.434-1.435,9.339c0.403,1.861,1.143,7.125-0.727,7.905c-1.232-1.421,0.663-4.232-0.35-5.39
		c-0.125,4.901-1.21,9.568-1.086,13.658c-0.91-1.762-2.443,0.484-3.595-0.363c-0.221-0.857-0.512-1.637-0.355-2.884
		c-1.134-0.385-0.95-0.161-1.797,0.368c2.583-4.017,1.726-11.456,2.511-17.245c-1.013-1.734-1.892-3.609-2.147-6.106
		c-4.188-4.681-10.658-7.062-17.612-8.977c-0.893,4.788,5.24,13.909-0.723,17.245c1.602,3.184-1.272,5.421-0.708,7.542
		c-1.928-1.282-2.107,1.847-4.31,1.435c-1.78-0.018-0.053-3.551-2.529-2.874c0.871-2.25,0.97-5.269,2.167-7.184
		c1.65,0.705,3.246,0.776,3.95-1.081c-1.924-0.852-3.771,0.431-5.395-0.717c1.444-16.151-7.088-24.199-19.033-28.023
		c-1.78,4.232,0.601,7.506,0,11.859c-0.569,4.151-4.151,7.542-3.597,10.774c-2.156-0.009-2.147,2.161-4.309,2.161
		c-0.574-1.471-0.682-1.775-0.362-3.596c-0.74-0.78-1.162,0.04-1.798,0.354c1.913-1.601,0.3-3.407,0-5.748
		c-0.584-4.64,1.094-10.622,0.362-15.805c-0.609-4.332-3.075-6.681-3.959-9.703c-5-1.83-8.551-6.995-13.286-7.909
		c-1.788,4.658-0.094,8.03-0.712,12.218c-0.767,5.125-4.909,6.855-5.04,11.864c-1.915-1.394-1.713,1.968-3.951,1.431
		c-0.985-0.691-0.502-2.852-1.788-3.233c2.654-2.089,1.085-4.677,0.712-7.905c-0.511-4.367,0.901-9.308,0.714-13.285
		c-0.484-10.681-7.556-18.353-15.797-20.84c-1.075,8.505-4.82,14.348-7.913,20.84c-1.78-1.413-1.87,3.51-3.95,1.793
		c-2.354-0.48,0.811-4.345-1.799-4.672c4.134-2.201,2.152-14.585,2.521-21.199c0.062-1.179,0.502-3.229,0.354-4.318
		c-1.05-8.142-10.066-11.622-13.653-14.725c-2.838,2.053-1.923,4.888-2.874,7.905c-1.552,4.991-5.82,8.206-6.825,12.927
		c-1.789-1.242-2.035,1.668-4.299,1.081c-0.646-1.036-0.513-2.852-1.094-3.947c0.748-0.457,1.515-0.883,2.16-1.447
		c-3.062-10.493,5.147-20.37,1.799-28.015c-2.144-4.888-8.296-6.968-11.497-11.497c-4.981,4.833-6.442,13.213-11.133,18.321
		c-1.745-1.256-2.874,2.398-5.04,0.717c-1.341-1.812,2.703-2.574,1.081-4.672c0.574,0.104,0.618-0.332,1.085-0.354
		c0.928-9.12,4.372-15.751,5.026-25.15c-3.027-3.56-5.256-7.923-8.623-11.142c-5.632,3.479-7.802,10.411-12.577,14.738
		c-0.098,0.578,0.341,0.618,0.358,1.08c-2.538-0.623-1.981,1.838-4.309,1.431c-0.161-0.318-0.319-0.642-0.722-0.718
		c0.21-1.578,2.519-2.582,1.798-3.945c0.529-0.188,0.906-0.539,1.435-0.718c-1.736-9.102,8.259-16.832,7.909-22.643
		c-0.238-3.812-4.569-7.488-6.112-11.134c-5.254-0.211-7.263,4.712-10.057,7.905c-1.762,2.009-4.233,2.974-4.673,5.381
		c-1.981-0.995-2.143,1.901-4.671,1.439c-0.184-1.875,2.317-2.533,1.085-4.318c0.045-0.664,1.215-0.206,1.435-0.708
		c1.358-3.233,0.982-5.489,2.515-8.627c2.592-5.322,9.667-8.048,10.424-12.572c1.826-11.053-14.119-9.38-15.813-1.085
		c-0.359,0-0.287-0.439-0.369-0.708c-1.932-0.27-1.412,1.937-3.586,1.426c-0.547-0.511,0.605-3.013-0.364-3.95
		c2.063-0.426,2.982-4.812,5.035-7.179c3.436-3.999,11.417-5.031,10.78-9.344c-0.184-1.237-4.627-5.335-6.824-5.744
		c-3.471-0.641-8.734,2.466-10.066,5.027c-1.48-1.094-2.13,2.062-3.955,0.717c-0.273-1.56,1.808-1.964,0.723-3.228
		c4.717-4.753,8.452-10.474,17.611-10.784c-1.269-6.6-11.021-5.42-15.446-2.515c-0.201,0.641-0.192,1.493-0.723,1.793
		c-0.802-0.996-2.156-1.439-2.165-3.229c0.651-0.044,0.758,0.439,1.444,0.359c4.363-4.08,10.833-7.358,18.325-7.191
		c2.027-4.762-5.559-6.157-8.98-4.3c-0.345-1.587-3.798-0.054-4.673-1.085c1.642-3.233,6.18-4.322,11.488-2.874
		c1.771,0.475,2.556,1.892,3.964,1.794c2.435-0.153,5.591-4.215,8.976-5.027C233.004,4.164,235.585,5.222,240.352,4.801z"/>
	<path fill-rule="evenodd" clip-rule="evenodd" fill="#010101" d="M459.865,203.853c-4.381-5.062,8.188-6.38,5.752,0
		c-1.788,1.534-1.372-1.542-2.87-1.439C461.237,202.337,461.644,204.172,459.865,203.853z"/>
	<path fill-rule="evenodd" clip-rule="evenodd" fill="#010101" d="M388.375,186.241c1.107-4.465,8.899-1.758,7.191,2.511
		c-1.798-0.358-1.447-2.865-3.236-3.228C391.142,185.824,389.845,187.357,388.375,186.241z"/>
	<path fill-rule="evenodd" clip-rule="evenodd" fill="#010101" d="M285.267,104.69c5.285-3.542,10.469,6.107,3.586,6.829
		c-2.035-1.439,1.14-2.282,0.364-4.677C288.252,105.779,285.406,106.582,285.267,104.69z"/>
	<path fill-rule="evenodd" clip-rule="evenodd" fill="#010101" d="M251.495,49.714c9.945-1.681,3.009,13.079-2.157,4.677
		c1.382-1.839,4.408,1.408,5.031-1.803C254.404,50.638,251.346,51.777,251.495,49.714z"/>
	<path fill-rule="evenodd" clip-rule="evenodd" fill="#010101" d="M212.691,87.078c1.104,11.505-15.953-1.619-3.586-2.878
		c1.232,1.785-1.269,2.443-1.085,4.318C210.549,88.979,210.71,86.083,212.691,87.078z"/>
	<path fill-rule="evenodd" clip-rule="evenodd" fill="#010101" d="M430.052,253.425c2.264,7.246-10.595,3.255-5.026-1.076
		c0.865,0.215,0.793,1.359,1.076,2.157C428.245,254.978,428.322,253.363,430.052,253.425z"/>
	<path fill-rule="evenodd" clip-rule="evenodd" fill="#010101" d="M464.905,253.789c5.254,7.627-11.035,4.372-3.95-0.722
		c2.479,0.296-0.66,4.672,2.506,4.672C464.039,256.515,463.519,254.188,464.905,253.789z"/>
	<path fill-rule="evenodd" clip-rule="evenodd" fill="#010101" d="M286.701,423.015c-0.703-11.491,14.945,0.503,5.026,3.229
		c-1.587-1.327,0.574-3.219-0.354-5.026C289.01,420.867,288.422,423.872,286.701,423.015z"/>
	<path fill-rule="evenodd" clip-rule="evenodd" fill="#010101" d="M106.342,295.824c-2.771,5.592-11.586-1.031-7.179-5.748
		c3.027-2.331,2.022,4.681,4.313,5.386C105.027,295.905,106.059,293.578,106.342,295.824z"/>
	<path fill-rule="evenodd" clip-rule="evenodd" fill="#010101" d="M225.269,397.866c-1.628,4.542-7.841,1.61-8.618-1.798
		c1.188-1.695,2.135-3.61,5.023-3.597c0.802,1.431-2.896,2.162-1.435,4.31C221.889,397.033,225.403,395.1,225.269,397.866z"/>
	<path fill-rule="evenodd" clip-rule="evenodd" fill="#010101" d="M253.292,479.417c0-0.251,0-0.479,0-0.718
		c-6.654-1.82-11.018-5.133-16.895-6.111c-4.426-0.739-8.923-0.035-13.286-0.358c-61.809-4.573-106.611-28.93-142.642-61.077
		c-28.149-25.119-50.766-57.335-63.585-99.164c-1.879-6.147-3.659-14.487-6.461-20.836c-1.425-3.184-2.928-5.516-5.394-8.259
		c-5.749-6.403-6.587-17.147-2.161-26.589c-7.044-12.442,0.592-30.05,4.671-41.313c1.148-3.188,1.79-6.524,2.516-10.062
		c3.251-15.998,6.062-28.283,10.779-40.609c18.926-49.469,51.084-86.778,91.622-113.883c5.255-3.524,11.062-6.152,16.519-9.349
		c13.402-7.824,28.341-13.922,44.914-19.043c2.995-0.915,7.528-1.677,10.057-3.228c3.43-2.089,5.996-7.389,9.699-10.057
		c6.882-4.941,15.522-7.035,25.872-3.959c7.12-4.986,14.639-5.672,22.283-3.946c7.712,1.749,13.054,7.151,19.03,9.336
		c6.357,2.331,14.123,2.201,20.84,3.241c48.482,7.484,85.645,25.177,116.771,51.021c33.117,27.481,57.895,61.23,72.575,107.054
		c1.089,3.413,1.798,7.488,3.232,10.425c1.659,3.408,4.955,8.013,7.913,11.497c4.799,5.677,9.462,9.568,6.457,20.124
		c-0.699,2.47-2.582,5.053-2.516,7.178c0.055,1.615,1.57,3.301,2.153,5.031c4.344,12.877-3.147,23.589-8.26,32.691
		c-5.062,60.513-30.817,104.221-63.952,140.132c-23.908,25.897-56.177,46.304-93.052,59.988c-6.232,2.317-12.993,3.623-18.68,6.838
		c-7.43,4.178-13.801,12.334-25.88,10.41c-1.798-0.287-2.892-1.631-4.663-1.434c-0.026,0-7.331,3.945-7.896,5.03
		C261.668,479.417,257.472,479.417,253.292,479.417z M209.105,12.355c-1.932,4.963-8.102,1.188-8.99-2.165
		c-6.632,1.928-8.757,9.039-13.648,12.218c-4.071,2.645-10.99,3.362-15.805,5.03c-18.555,6.43-35.929,14.896-51.021,24.074
		C97.101,65.21,78.52,83.867,61.437,102.529c-1.861,2.031-3.605,5.479-5.749,8.263c-2.098,2.73-4.977,5.605-6.461,7.896
		c-0.341,0.521-0.045,1.592-0.367,2.166c-1.79,3.327-5.157,6.52-6.825,9.339c-0.686,1.166-0.686,3.08-1.434,4.314
		c-0.548,0.896-1.695,1.304-2.162,2.156c-2.327,4.322-3.506,9.309-6.824,13.286c-2.547,7.523-5.394,14.729-8.626,21.558
		c0,0.844,0,1.682,0,2.516c-5.229,12.496-7.6,27.853-10.421,42.762c-2.964,5.878-5.246,12.465-6.824,19.76
		c2.417-0.211,4.214,0.946,5.035,3.228c-1.022,0.901-0.919,2.919-2.874,2.884c-1.157-0.054-1.57-1.929-2.52-1.081
		c-1.632,1.708-0.233,5.439,0,7.542c0.129,0.847,0.431,1.479,0.722,2.156c0,0.122,0,0.242,0,0.354
		c3.923,3.771-0.856,9.707-1.439,16.164c-0.578,6.416,1.807,12.492,7.188,12.585c0.502,0.938,0.493,2.373,1.08,3.233
		c1.484-0.18,1.014-2.341,1.794-3.233c3.69,1.7-0.489,3.978-0.718,5.744c-0.395,3.081,2.955,7.344,3.596,9.703
		c0.318,1.18,0.044,2.386,0.354,3.597c4.516,18.087,11.488,34.175,19.401,49.223c8.851,16.832,19.859,31.834,32.342,45.259
		c11.097,11.944,22.611,21.782,35.919,31.274c13.823,9.832,29.181,18.711,45.636,25.14c18.45,7.202,42.395,14.824,66.104,16.519
		c6.075,0.449,12.841-0.421,19.401,0.728c8.632,1.515,18.855,9.747,29.458,6.106c0.256-0.82,1.085-1.067,1.799-1.439
		c2.856-0.735,4.111-5.269,7.9-2.869c4.089,3.25,12.047,1.116,15.451-1.436c-0.74-0.35-1.427-0.74-2.156-1.09
		c-0.399-1.878,2.985-1.318,1.789-2.869c-1.113-0.726-2.584,0.507-3.583-0.717c-0.192-1.396,0.91-1.479,1.076-2.512
		c0.417-0.179,0.811-0.391,1.076-0.727c4.488-0.528,4.815,3.095,6.47,5.399c5-5.049,11.847-6.727,18.68-8.994
		c16.737-5.525,33.108-13.757,47.778-21.195c14.276-9.312,27.872-18.146,39.888-29.463c13.053-12.277,24.203-25.656,35.207-39.87
		c3.524-7.859,9.29-13.469,12.224-21.926c10.481-18.195,21.508-46.371,24.781-73.654c0.564-4.69,0.272-9.69,1.435-14.003
		c1.278-4.761,5.713-8.057,7.192-12.218c1.797-5.035-1.18-7.887,0.363-11.133c0.107,0,0.236,0,0.345,0
		c2.439-4.968-3.341-9.129-2.865-13.299c1.252-2.941,3.358-5.018,3.596-8.977c1.816-6.6-1.667-10.716-6.11-12.214
		c-1.857,0.359-0.121,2.09-1.081,3.233c-0.893-0.058-1.484,0.179-1.798,0.717c-2.381,0.462-2.552-1.273-3.95-1.797
		c-0.512,0.672-0.521,1.86-1.439,2.152c-4.673-6.528,7.169-2.968,7.188-8.268c-7.224-6.699-8.923-16.527-12.219-26.58
		c-11.038-33.746-30.14-62.477-52.819-85.152c-25.02-25.037-58.266-47.021-98.79-58.562c-15.868-4.51-32.67-6.788-51.38-8.618
		c-7.345-0.721-9.505-7.209-17.244-8.626c0.457,2.413,2.224,2.376,1.806,4.676c-0.605,3.264-6.818,3.511-7.545-0.367
		c0.689-2.793,2.39,1.753,4.295,0c0.767-2.919-2.945-2.443-1.78-4.672c0.834-0.121,1.533-0.363,1.78-1.081
		c-0.884-0.413-2.107-0.511-3.229-0.717c-4.767,0.421-7.348-0.637-11.492,0.363c-3.385,0.812-6.541,4.874-8.976,5.027
		c-1.408,0.098-2.193-1.319-3.964-1.794c-5.309-1.448-9.847-0.359-11.488,2.874C205.307,12.302,208.76,10.768,209.105,12.355z"/>
	<path fill-rule="evenodd" clip-rule="evenodd" fill="#010101" d="M202.272,40.733c0.601,0.597,0.282,2.107,0.363,3.232
		c-4.425,6.542-12.994-5.708-3.595-5.743c1.085,1.264-0.996,1.668-0.723,3.228C200.142,42.796,200.792,39.639,202.272,40.733z"/>
	<path fill-rule="evenodd" clip-rule="evenodd" fill="#010101" d="M258.319,67.318c2.654-2.704,7.985,0.085,6.829,4.672
		c-0.96,1.062-3.059,2.555-5.031,1.438c-1.507-2.152,2.188-1.762,1.798-3.955C261.65,67.819,258.557,68.999,258.319,67.318z"/>
	<path fill-rule="evenodd" clip-rule="evenodd" fill="#010101" d="M246.11,136.301c-1.18,10.434-14.864-3.157-3.959-3.955
		c1.622,2.099-2.422,2.861-1.081,4.672C243.236,138.699,244.365,135.045,246.11,136.301z"/>
	<path fill-rule="evenodd" clip-rule="evenodd" fill="#010101" d="M323.346,142.049c1.014-6.497,11.954-1.479,7.193,3.586
		C329.351,142.564,326.625,141.309,323.346,142.049z"/>
	<path fill-rule="evenodd" clip-rule="evenodd" fill="#010101" d="M366.459,174.39c0.308-7.367,11.329-0.897,5.747,3.229
		c-1.004-1.148-1.443-2.87-2.874-3.596C368.239,174.045,367.463,175.345,366.459,174.39z"/>
	<path fill-rule="evenodd" clip-rule="evenodd" fill="#010101" d="M296.4,184.093c0.848,0.883,0,2.112,0,3.233
		c-1.05,1.089-3.12,1.179-5.394,1.081c-2.646-1.202-4.103-6.147-0.355-7.192c2.609,0.327-0.555,4.192,1.799,4.672
		C294.53,187.604,294.62,182.681,296.4,184.093z"/>
	<path fill-rule="evenodd" clip-rule="evenodd" fill="#010101" d="M409.211,197.024c-1.909-3.018,4.215-5.197,5.748-2.524
		C412.324,194.621,411.247,196.298,409.211,197.024z"/>
	<path fill-rule="evenodd" clip-rule="evenodd" fill="#010101" d="M428.976,200.616c-0.274-1.964,3.815-2.538,4.672-1.076
		C431.639,199.033,429.873,203.49,428.976,200.616z"/>
	<path fill-rule="evenodd" clip-rule="evenodd" fill="#010101" d="M445.857,204.929c0-0.609,0-1.201,0-1.812
		c0.96-2.224,5.587-2.376,6.107,0.373c-0.045,0.421,0.062,1.022-0.346,1.071C449.144,202.337,447.956,205.306,445.857,204.929z"/>
	<path fill-rule="evenodd" clip-rule="evenodd" fill="#010101" d="M324.423,207.086c0.588,1.152,0.175,1.942,0,3.232
		c-3.412,3.659-10.255-1.932-5.739-5.035c1.286,0.381,0.803,2.542,1.788,3.233C322.71,209.054,322.508,205.692,324.423,207.086z"/>
	<path fill-rule="evenodd" clip-rule="evenodd" fill="#010101" d="M48.142,220.017c2.021-10.514,16.644,2.856,5.748,5.027
		c-1.744-1.314,1.085-3.292,0-5.027C52.155,218.085,49.72,220.864,48.142,220.017z"/>
	<path fill-rule="evenodd" clip-rule="evenodd" fill="#010101" d="M70.417,225.761c-0.103-1.305,0.054-2.34,0.363-3.229
		c5.202-5,13.169,4.507,5.74,7.192c-2.265-0.39,0.3-3.587-1.431-4.681c-0.287-0.082-0.713-0.014-0.713-0.364
		C72.175,224.075,71.928,226.841,70.417,225.761z"/>
	<path fill-rule="evenodd" clip-rule="evenodd" fill="#010101" d="M353.527,223.25c1.889,5.954-9.308,5.116-6.469-1.081
		c0.636-0.314,1.058-1.134,1.798-0.354c-0.319,1.821-0.212,2.125,0.362,3.596C351.379,225.411,351.371,223.241,353.527,223.25z"/>
	<path fill-rule="evenodd" clip-rule="evenodd" fill="#010101" d="M31.615,223.25c-0.87-3.112,2.547-5.13,6.103-3.95
		c0.659,1.619,1.717,2.829,1.798,5.026c-0.91,0.995-1.35,2.479-3.596,2.156c-1.968-1.22,0.803-2.73,0.368-4.667
		C34.005,220.515,33.677,223.241,31.615,223.25z"/>
	<path fill-rule="evenodd" clip-rule="evenodd" fill="#010101" d="M15.818,230.792c1.049-7.371,11.725,1.336,3.941,2.879
		c-0.627-0.556-1.918-0.484-1.435-2.152C17.275,231.98,16.253,231.796,15.818,230.792z"/>
	<path fill-rule="evenodd" clip-rule="evenodd" fill="#010101" d="M382.273,239.06c0.865,6.762-9.555,4.179-6.839-1.439
		c2.477-0.677,0.749,2.856,2.529,2.874C380.166,240.907,380.345,237.777,382.273,239.06z"/>
	<path fill-rule="evenodd" clip-rule="evenodd" fill="#010101" d="M120.716,246.96c-2.713-5.784,10.156-4.094,6.47,1.435
		C126.102,245.203,122.797,243.687,120.716,246.96z"/>
	<path fill-rule="evenodd" clip-rule="evenodd" fill="#010101" d="M406.7,249.48c0,0.233,0,0.484,0,0.718
		c-1.156,1.3-4.24,1.394-5.384,0c-0.418-0.879-1.202-2.583-0.363-3.597c0.847-0.529,0.663-0.752,1.797-0.368
		c-0.156,1.247,0.135,2.027,0.355,2.884C404.256,249.964,405.79,247.718,406.7,249.48z"/>
	<path fill-rule="evenodd" clip-rule="evenodd" fill="#010101" d="M450.898,257.022c0,0.596,0,1.202,0,1.797
		c-0.634,1.041-1.682,1.678-2.875,2.148c-1.833-0.924-4.106-1.399-3.596-4.664c0.73-0.107,0.698-0.973,1.43-1.081
		c0.641,1.269,0.614,3.224,1.798,3.946C448.139,257.963,449.09,255.762,450.898,257.022z"/>
	<path fill-rule="evenodd" clip-rule="evenodd" fill="#010101" d="M34.852,274.63c2.583,7.291-10.712,4.523-7.192-0.722
		c0.422-0.296,0.969-0.476,1.798-0.359c0.458,1.094,0.561,2.547,1.435,3.233C33.336,277.181,32.619,274.428,34.852,274.63z"/>
	<path fill-rule="evenodd" clip-rule="evenodd" fill="#010101" d="M49.572,271.755c1.516,0.408,0.812,3.031,1.453,4.313
		c-1.39,4.834-11.334,2.946-9.353-2.52c2.664-1.479,1.677,3.524,4.672,2.883C48.151,275.584,47.465,272.257,49.572,271.755z"/>
	<path fill-rule="evenodd" clip-rule="evenodd" fill="#010101" d="M66.099,278.212c0.054,9.811-16.406,1.431-7.537-3.228
		c2.556,0.439,1.624,4.358,3.596,5.394C64.409,280.588,64.1,278.252,66.099,278.212z"/>
	<path fill-rule="evenodd" clip-rule="evenodd" fill="#010101" d="M23.356,277.145c2.215,5.107-8.524,4.385-6.116-0.363
		c1.901-1.35,1.498,2.193,3.232,2.156C21.593,278.306,21.71,275.172,23.356,277.145z"/>
	<path fill-rule="evenodd" clip-rule="evenodd" fill="#010101" d="M176.401,282.535c-0.695-9.385,15.657,0.036,5.756,4.309
		c-1.251-1.269,0.457-4.283-1.076-5.753C178.244,280.301,178.93,283.019,176.401,282.535z"/>
	<path fill-rule="evenodd" clip-rule="evenodd" fill="#010101" d="M86.585,284.319c2.911,8.923-13.312,4.856-8.268-1.072
		c3.121,0.077,1.7,3.287,3.959,3.597C84.366,287.13,83.904,284.556,86.585,284.319z"/>
	<path fill-rule="evenodd" clip-rule="evenodd" fill="#010101" d="M151.614,323.126c-1.049,10.255-15.523-2.363-5.394-4.309
		c1.892,1.125-1.094,3.296,0.368,5.03C148.686,325.561,150.273,322.14,151.614,323.126z"/>
	<path fill-rule="evenodd" clip-rule="evenodd" fill="#010101" d="M250.06,352.952c3.451-7.699,13.309,5.475,3.232,5.385
		c-1.516-2.438,2.443-2.743,1.076-5.031C252.899,351.737,250.351,355.526,250.06,352.952z"/>
	<path fill-rule="evenodd" clip-rule="evenodd" fill="#010101" d="M209.459,380.254c-0.753,2.923-6.457,1.865-7.545,0
		c-0.081-2.116-0.019-4.076,1.08-5.031c1.027-0.609,2.672-1.004,3.95-0.363c1.377,2.197-2.627,0.884-2.512,2.879
		c0,0.484,0,0.964,0,1.439C205.755,380.604,209.217,377.729,209.459,380.254z"/>
	<path fill-rule="evenodd" clip-rule="evenodd" fill="#010101" d="M267.299,377.738c2.426-8.985,14.272,3.521,3.95,4.31
		c-0.138-0.687-1.385-0.278-1.076-1.444c0.961-0.834,1.951-1.627,2.162-3.229C270.582,376.12,268.623,379.595,267.299,377.738z"/>
	<path fill-rule="evenodd" clip-rule="evenodd" fill="#010101" d="M237.119,416.541c-10.2,3.431-8.532-12.12-0.354-5.744
		c-1.232,0.798-3.78,0.296-4.662,1.432c-0.157,0.855,0.654,0.789,0.345,1.797c0.959,0.731,3.305,0.05,4.317,0.722
		C237.066,415.165,237.242,415.702,237.119,416.541z"/>
	<path fill-rule="evenodd" clip-rule="evenodd" fill="#010101" d="M248.975,434.865c-3.789,1.051-7.107-1.568-6.824-4.671
		c0.318-3.382,6.312-5.076,7.909-1.085c-1.031,2.224-3.758-1.255-5.395,0.367C244.961,432.413,248.674,431.942,248.975,434.865z"/>
	<path fill-rule="evenodd" clip-rule="evenodd" fill="#010101" d="M291.727,438.462c2.116-11.515,15.613,4.098,3.959,3.945
		c-1.085-1.613,1.584-2.125,1.081-4.309C294.968,436.593,292.889,439.377,291.727,438.462z"/>
	<path fill-rule="evenodd" clip-rule="evenodd" fill="#010101" d="M288.5,454.263c2.892-11.254,15.227,5.39,3.596,4.31
		c-1.417-1.951,1.896-1.794,1.431-3.941C292.095,454.617,288.943,456.621,288.5,454.263z"/>
	<path fill-rule="evenodd" clip-rule="evenodd" fill="#010101" d="M255.09,468.279c-5.076,4.888-10.577-6.896-2.519-6.475
		c-0.769-2.205-2.682-2.618-2.512-5.026c0.301-4.291,7.034-4.619,8.259-0.704c-0.803,1.915-3.815-0.511-5.026,0.704
		c-0.166,2.807,4.26,1.01,3.597,4.313c-0.53,0.91-2.185,0.687-2.521,1.793c0.758,0.444,1.35,1.045,1.798,1.799
		c-0.376,0.937-1.462,1.175-2.874,1.071C253.1,467.396,255.208,466.728,255.09,468.279z"/>
	<path fill-rule="evenodd" clip-rule="evenodd" fill="#010101" d="M198.317,23.488c0.009,1.79,1.363,2.233,2.165,3.229
		c-0.273,6.734-8.478,3.246-7.913-1.067C192.807,23.883,195.708,21.444,198.317,23.488z"/>
	<path fill-rule="evenodd" clip-rule="evenodd" fill="#010101" d="M244.666,32.465c7.281-2.435,8.541,8.048,1.798,7.191
		c-1.484-0.188-2.371-1.362-3.228-2.878c1.394-1.905,4.637,1.587,5.385-1.435c-1.023-1.287-2.82,0-3.955-0.718
		C243.966,33.954,244.559,33.312,244.666,32.465z"/>
	<path fill-rule="evenodd" clip-rule="evenodd" fill="#010101" d="M347.058,157.491c2.527-3.847,9.563,1.237,6.11,4.313
		c-1.649,0.099-0.856-2.251-1.798-2.866C350.389,158.011,346.955,159.513,347.058,157.491z"/>
	<path fill-rule="evenodd" clip-rule="evenodd" fill="#010101" d="M480.35,239.772c1.261,0.413,1.108,2.26,1.082,3.95
		c-3.188,4.681-9.896-3.492-3.955-5.031c1.214,0.108,0.597,2.049,1.799,2.162C479.212,240.073,479.566,239.71,480.35,239.772z"/>
	<path fill-rule="evenodd" clip-rule="evenodd" fill="#010101" d="M225.986,329.596c-0.802-9.693,15.379-0.618,6.117,3.592
		c-1.92-1.287,0.729-2.668,0.345-4.672C230.031,326.251,228.552,329.758,225.986,329.596z"/>
</g>
</svg>
